%TF.GenerationSoftware,KiCad,Pcbnew,(5.1.6)-1*%
%TF.CreationDate,2021-07-17T16:45:05+03:00*%
%TF.ProjectId,gotek_ctrl,676f7465-6b5f-4637-9472-6c2e6b696361,rev?*%
%TF.SameCoordinates,Original*%
%TF.FileFunction,Copper,L2,Bot*%
%TF.FilePolarity,Positive*%
%FSLAX46Y46*%
G04 Gerber Fmt 4.6, Leading zero omitted, Abs format (unit mm)*
G04 Created by KiCad (PCBNEW (5.1.6)-1) date 2021-07-17 16:45:05*
%MOMM*%
%LPD*%
G01*
G04 APERTURE LIST*
%TA.AperFunction,WasherPad*%
%ADD10C,4.000000*%
%TD*%
%TA.AperFunction,ComponentPad*%
%ADD11O,1.700000X1.700000*%
%TD*%
%TA.AperFunction,ComponentPad*%
%ADD12R,1.700000X1.700000*%
%TD*%
%TA.AperFunction,Conductor*%
%ADD13C,0.500000*%
%TD*%
%TA.AperFunction,Conductor*%
%ADD14C,2.000000*%
%TD*%
%TA.AperFunction,NonConductor*%
%ADD15C,0.254000*%
%TD*%
G04 APERTURE END LIST*
D10*
%TO.P,HoleSW,*%
%TO.N,*%
X118000000Y-90000000D03*
%TD*%
%TO.P,HoleSE,*%
%TO.N,*%
X195500000Y-90000000D03*
%TD*%
%TO.P,HoleNE,*%
%TO.N,*%
X195500000Y-58500000D03*
%TD*%
%TO.P,HoleNW,*%
%TO.N,*%
X118000000Y-58500000D03*
%TD*%
D11*
%TO.P,,3V3*%
%TO.N,N/C*%
X168700000Y-67000000D03*
%TO.P,,CS*%
X166160000Y-67000000D03*
%TO.P,,MOSI*%
X163620000Y-67000000D03*
%TO.P,,CLK*%
X161080000Y-67000000D03*
%TO.P,,MISO*%
X158540000Y-67000000D03*
D12*
%TO.P,,GND*%
X156000000Y-67000000D03*
%TD*%
D11*
%TO.P,,GND*%
%TO.N,N/C*%
X180500000Y-59420000D03*
%TO.P,,S1*%
X180500000Y-61960000D03*
%TO.P,,S2*%
X180500000Y-64500000D03*
%TO.P,,KEY*%
X180500000Y-67040000D03*
D12*
%TO.P,,VCC*%
X180500000Y-69580000D03*
%TD*%
%TO.P,right side,TX*%
%TO.N,N/C*%
X148000000Y-86000000D03*
D11*
%TO.P,right side,RX*%
X145460000Y-86000000D03*
%TO.P,right side,22*%
X142920000Y-86000000D03*
%TO.P,right side,21*%
X140380000Y-86000000D03*
%TO.P,right side,17*%
X137840000Y-86000000D03*
%TO.P,right side,16*%
X135300000Y-86000000D03*
%TO.P,right side,GND*%
X132760000Y-86000000D03*
%TO.P,right side,VCC*%
X130220000Y-86000000D03*
%TO.P,right side,TD0*%
X127680000Y-86000000D03*
%TO.P,right side,SD0*%
X125140000Y-86000000D03*
%TD*%
%TO.P,left side,SD3*%
%TO.N,N/C*%
X125140000Y-63000000D03*
%TO.P,left side,TCK*%
X127680000Y-63000000D03*
%TO.P,left side,3V3*%
X130220000Y-63000000D03*
%TO.P,left side,5*%
X132760000Y-63000000D03*
%TO.P,left side,23*%
X135300000Y-63000000D03*
%TO.P,left side,19*%
X137840000Y-63000000D03*
%TO.P,left side,18*%
X140380000Y-63000000D03*
%TO.P,left side,26*%
X142920000Y-63000000D03*
%TO.P,left side,SVP*%
X145460000Y-63000000D03*
D12*
%TO.P,left side,RST*%
X148000000Y-63000000D03*
%TD*%
%TO.P,OLED_128x32,SDA*%
%TO.N,N/C*%
X157000000Y-85000000D03*
D11*
%TO.P,OLED_128x32,SCL*%
X157000000Y-87540000D03*
%TO.P,OLED_128x32,VCC*%
X157000000Y-90080000D03*
%TO.P,OLED_128x32,GND*%
X157000000Y-92620000D03*
%TD*%
D13*
%TO.N,*%
X157020000Y-87560000D02*
X157000000Y-87540000D01*
X158540000Y-67000000D02*
X158540000Y-60540000D01*
X158540000Y-60540000D02*
X157500000Y-59500000D01*
X157500000Y-59500000D02*
X139000000Y-59500000D01*
X137840000Y-60660000D02*
X137840000Y-63000000D01*
X139000000Y-59500000D02*
X137840000Y-60660000D01*
D14*
X132760000Y-86000000D02*
X132760000Y-83760000D01*
X132760000Y-86000000D02*
X132760000Y-87740000D01*
X157000000Y-92620000D02*
X159120000Y-92620000D01*
X157000000Y-92620000D02*
X157000000Y-94000000D01*
X157000000Y-92620000D02*
X155120000Y-92620000D01*
X156000000Y-67000000D02*
X156000000Y-65000000D01*
X156000000Y-67000000D02*
X154000000Y-67000000D01*
X156000000Y-67000000D02*
X156000000Y-68500000D01*
X180500000Y-59420000D02*
X182420000Y-59420000D01*
X180500000Y-59420000D02*
X180500000Y-58000000D01*
X180500000Y-59420000D02*
X178580000Y-59420000D01*
%TD*%
D15*
G36*
X199348001Y-95848000D02*
G01*
X114152000Y-95848000D01*
X114152000Y-89692017D01*
X114873000Y-89692017D01*
X114873000Y-90307983D01*
X114993169Y-90912112D01*
X115228889Y-91481190D01*
X115571101Y-91993346D01*
X116006654Y-92428899D01*
X116518810Y-92771111D01*
X117087888Y-93006831D01*
X117692017Y-93127000D01*
X118307983Y-93127000D01*
X118912112Y-93006831D01*
X119481190Y-92771111D01*
X119993346Y-92428899D01*
X120428899Y-91993346D01*
X120771111Y-91481190D01*
X121006831Y-90912112D01*
X121127000Y-90307983D01*
X121127000Y-89692017D01*
X121006831Y-89087888D01*
X120771111Y-88518810D01*
X120428899Y-88006654D01*
X119993346Y-87571101D01*
X119481190Y-87228889D01*
X118912112Y-86993169D01*
X118307983Y-86873000D01*
X117692017Y-86873000D01*
X117087888Y-86993169D01*
X116518810Y-87228889D01*
X116006654Y-87571101D01*
X115571101Y-88006654D01*
X115228889Y-88518810D01*
X114993169Y-89087888D01*
X114873000Y-89692017D01*
X114152000Y-89692017D01*
X114152000Y-85805282D01*
X123163000Y-85805282D01*
X123163000Y-86194718D01*
X123238975Y-86576670D01*
X123388005Y-86936461D01*
X123604364Y-87260264D01*
X123879736Y-87535636D01*
X124203539Y-87751995D01*
X124563330Y-87901025D01*
X124945282Y-87977000D01*
X125334718Y-87977000D01*
X125716670Y-87901025D01*
X126076461Y-87751995D01*
X126400264Y-87535636D01*
X126410000Y-87525900D01*
X126419736Y-87535636D01*
X126743539Y-87751995D01*
X127103330Y-87901025D01*
X127485282Y-87977000D01*
X127874718Y-87977000D01*
X128256670Y-87901025D01*
X128616461Y-87751995D01*
X128940264Y-87535636D01*
X128950000Y-87525900D01*
X128959736Y-87535636D01*
X129283539Y-87751995D01*
X129643330Y-87901025D01*
X130025282Y-87977000D01*
X130414718Y-87977000D01*
X130796670Y-87901025D01*
X131156461Y-87751995D01*
X131480264Y-87535636D01*
X131490000Y-87525900D01*
X131499736Y-87535636D01*
X131823539Y-87751995D01*
X132183330Y-87901025D01*
X132565282Y-87977000D01*
X132954718Y-87977000D01*
X133336670Y-87901025D01*
X133696461Y-87751995D01*
X134020264Y-87535636D01*
X134030000Y-87525900D01*
X134039736Y-87535636D01*
X134363539Y-87751995D01*
X134723330Y-87901025D01*
X135105282Y-87977000D01*
X135494718Y-87977000D01*
X135876670Y-87901025D01*
X136236461Y-87751995D01*
X136560264Y-87535636D01*
X136570000Y-87525900D01*
X136579736Y-87535636D01*
X136903539Y-87751995D01*
X137263330Y-87901025D01*
X137645282Y-87977000D01*
X138034718Y-87977000D01*
X138416670Y-87901025D01*
X138776461Y-87751995D01*
X139100264Y-87535636D01*
X139110000Y-87525900D01*
X139119736Y-87535636D01*
X139443539Y-87751995D01*
X139803330Y-87901025D01*
X140185282Y-87977000D01*
X140574718Y-87977000D01*
X140956670Y-87901025D01*
X141316461Y-87751995D01*
X141640264Y-87535636D01*
X141650000Y-87525900D01*
X141659736Y-87535636D01*
X141983539Y-87751995D01*
X142343330Y-87901025D01*
X142725282Y-87977000D01*
X143114718Y-87977000D01*
X143496670Y-87901025D01*
X143856461Y-87751995D01*
X144180264Y-87535636D01*
X144190000Y-87525900D01*
X144199736Y-87535636D01*
X144523539Y-87751995D01*
X144883330Y-87901025D01*
X145265282Y-87977000D01*
X145654718Y-87977000D01*
X146036670Y-87901025D01*
X146396461Y-87751995D01*
X146438421Y-87723958D01*
X146520843Y-87791600D01*
X146716629Y-87896250D01*
X146929069Y-87960693D01*
X147150000Y-87982453D01*
X148850000Y-87982453D01*
X149070931Y-87960693D01*
X149283371Y-87896250D01*
X149479157Y-87791600D01*
X149650765Y-87650765D01*
X149791600Y-87479157D01*
X149896250Y-87283371D01*
X149960693Y-87070931D01*
X149982453Y-86850000D01*
X149982453Y-85150000D01*
X149960693Y-84929069D01*
X149896250Y-84716629D01*
X149791600Y-84520843D01*
X149650765Y-84349235D01*
X149479157Y-84208400D01*
X149369899Y-84150000D01*
X155017547Y-84150000D01*
X155017547Y-85850000D01*
X155039307Y-86070931D01*
X155103750Y-86283371D01*
X155208400Y-86479157D01*
X155276042Y-86561579D01*
X155248005Y-86603539D01*
X155098975Y-86963330D01*
X155023000Y-87345282D01*
X155023000Y-87734718D01*
X155098975Y-88116670D01*
X155248005Y-88476461D01*
X155464364Y-88800264D01*
X155474100Y-88810000D01*
X155464364Y-88819736D01*
X155248005Y-89143539D01*
X155098975Y-89503330D01*
X155023000Y-89885282D01*
X155023000Y-90274718D01*
X155098975Y-90656670D01*
X155248005Y-91016461D01*
X155464364Y-91340264D01*
X155474100Y-91350000D01*
X155464364Y-91359736D01*
X155248005Y-91683539D01*
X155098975Y-92043330D01*
X155023000Y-92425282D01*
X155023000Y-92814718D01*
X155098975Y-93196670D01*
X155248005Y-93556461D01*
X155464364Y-93880264D01*
X155739736Y-94155636D01*
X156063539Y-94371995D01*
X156423330Y-94521025D01*
X156805282Y-94597000D01*
X157194718Y-94597000D01*
X157576670Y-94521025D01*
X157936461Y-94371995D01*
X158260264Y-94155636D01*
X158535636Y-93880264D01*
X158751995Y-93556461D01*
X158901025Y-93196670D01*
X158977000Y-92814718D01*
X158977000Y-92425282D01*
X158901025Y-92043330D01*
X158751995Y-91683539D01*
X158535636Y-91359736D01*
X158525900Y-91350000D01*
X158535636Y-91340264D01*
X158751995Y-91016461D01*
X158901025Y-90656670D01*
X158977000Y-90274718D01*
X158977000Y-89885282D01*
X158938558Y-89692017D01*
X192373000Y-89692017D01*
X192373000Y-90307983D01*
X192493169Y-90912112D01*
X192728889Y-91481190D01*
X193071101Y-91993346D01*
X193506654Y-92428899D01*
X194018810Y-92771111D01*
X194587888Y-93006831D01*
X195192017Y-93127000D01*
X195807983Y-93127000D01*
X196412112Y-93006831D01*
X196981190Y-92771111D01*
X197493346Y-92428899D01*
X197928899Y-91993346D01*
X198271111Y-91481190D01*
X198506831Y-90912112D01*
X198627000Y-90307983D01*
X198627000Y-89692017D01*
X198506831Y-89087888D01*
X198271111Y-88518810D01*
X197928899Y-88006654D01*
X197493346Y-87571101D01*
X196981190Y-87228889D01*
X196412112Y-86993169D01*
X195807983Y-86873000D01*
X195192017Y-86873000D01*
X194587888Y-86993169D01*
X194018810Y-87228889D01*
X193506654Y-87571101D01*
X193071101Y-88006654D01*
X192728889Y-88518810D01*
X192493169Y-89087888D01*
X192373000Y-89692017D01*
X158938558Y-89692017D01*
X158901025Y-89503330D01*
X158751995Y-89143539D01*
X158535636Y-88819736D01*
X158525900Y-88810000D01*
X158535636Y-88800264D01*
X158751995Y-88476461D01*
X158901025Y-88116670D01*
X158977000Y-87734718D01*
X158977000Y-87345282D01*
X158901025Y-86963330D01*
X158751995Y-86603539D01*
X158723958Y-86561579D01*
X158791600Y-86479157D01*
X158896250Y-86283371D01*
X158960693Y-86070931D01*
X158982453Y-85850000D01*
X158982453Y-84150000D01*
X158960693Y-83929069D01*
X158896250Y-83716629D01*
X158791600Y-83520843D01*
X158650765Y-83349235D01*
X158479157Y-83208400D01*
X158283371Y-83103750D01*
X158070931Y-83039307D01*
X157850000Y-83017547D01*
X156150000Y-83017547D01*
X155929069Y-83039307D01*
X155716629Y-83103750D01*
X155520843Y-83208400D01*
X155349235Y-83349235D01*
X155208400Y-83520843D01*
X155103750Y-83716629D01*
X155039307Y-83929069D01*
X155017547Y-84150000D01*
X149369899Y-84150000D01*
X149283371Y-84103750D01*
X149070931Y-84039307D01*
X148850000Y-84017547D01*
X147150000Y-84017547D01*
X146929069Y-84039307D01*
X146716629Y-84103750D01*
X146520843Y-84208400D01*
X146438421Y-84276042D01*
X146396461Y-84248005D01*
X146036670Y-84098975D01*
X145654718Y-84023000D01*
X145265282Y-84023000D01*
X144883330Y-84098975D01*
X144523539Y-84248005D01*
X144199736Y-84464364D01*
X144190000Y-84474100D01*
X144180264Y-84464364D01*
X143856461Y-84248005D01*
X143496670Y-84098975D01*
X143114718Y-84023000D01*
X142725282Y-84023000D01*
X142343330Y-84098975D01*
X141983539Y-84248005D01*
X141659736Y-84464364D01*
X141650000Y-84474100D01*
X141640264Y-84464364D01*
X141316461Y-84248005D01*
X140956670Y-84098975D01*
X140574718Y-84023000D01*
X140185282Y-84023000D01*
X139803330Y-84098975D01*
X139443539Y-84248005D01*
X139119736Y-84464364D01*
X139110000Y-84474100D01*
X139100264Y-84464364D01*
X138776461Y-84248005D01*
X138416670Y-84098975D01*
X138034718Y-84023000D01*
X137645282Y-84023000D01*
X137263330Y-84098975D01*
X136903539Y-84248005D01*
X136579736Y-84464364D01*
X136570000Y-84474100D01*
X136560264Y-84464364D01*
X136236461Y-84248005D01*
X135876670Y-84098975D01*
X135494718Y-84023000D01*
X135105282Y-84023000D01*
X134723330Y-84098975D01*
X134363539Y-84248005D01*
X134039736Y-84464364D01*
X134030000Y-84474100D01*
X134020264Y-84464364D01*
X133696461Y-84248005D01*
X133336670Y-84098975D01*
X132954718Y-84023000D01*
X132565282Y-84023000D01*
X132183330Y-84098975D01*
X131823539Y-84248005D01*
X131499736Y-84464364D01*
X131490000Y-84474100D01*
X131480264Y-84464364D01*
X131156461Y-84248005D01*
X130796670Y-84098975D01*
X130414718Y-84023000D01*
X130025282Y-84023000D01*
X129643330Y-84098975D01*
X129283539Y-84248005D01*
X128959736Y-84464364D01*
X128950000Y-84474100D01*
X128940264Y-84464364D01*
X128616461Y-84248005D01*
X128256670Y-84098975D01*
X127874718Y-84023000D01*
X127485282Y-84023000D01*
X127103330Y-84098975D01*
X126743539Y-84248005D01*
X126419736Y-84464364D01*
X126410000Y-84474100D01*
X126400264Y-84464364D01*
X126076461Y-84248005D01*
X125716670Y-84098975D01*
X125334718Y-84023000D01*
X124945282Y-84023000D01*
X124563330Y-84098975D01*
X124203539Y-84248005D01*
X123879736Y-84464364D01*
X123604364Y-84739736D01*
X123388005Y-85063539D01*
X123238975Y-85423330D01*
X123163000Y-85805282D01*
X114152000Y-85805282D01*
X114152000Y-62805282D01*
X123163000Y-62805282D01*
X123163000Y-63194718D01*
X123238975Y-63576670D01*
X123388005Y-63936461D01*
X123604364Y-64260264D01*
X123879736Y-64535636D01*
X124203539Y-64751995D01*
X124563330Y-64901025D01*
X124945282Y-64977000D01*
X125334718Y-64977000D01*
X125716670Y-64901025D01*
X126076461Y-64751995D01*
X126400264Y-64535636D01*
X126410000Y-64525900D01*
X126419736Y-64535636D01*
X126743539Y-64751995D01*
X127103330Y-64901025D01*
X127485282Y-64977000D01*
X127874718Y-64977000D01*
X128256670Y-64901025D01*
X128616461Y-64751995D01*
X128940264Y-64535636D01*
X128950000Y-64525900D01*
X128959736Y-64535636D01*
X129283539Y-64751995D01*
X129643330Y-64901025D01*
X130025282Y-64977000D01*
X130414718Y-64977000D01*
X130796670Y-64901025D01*
X131156461Y-64751995D01*
X131480264Y-64535636D01*
X131490000Y-64525900D01*
X131499736Y-64535636D01*
X131823539Y-64751995D01*
X132183330Y-64901025D01*
X132565282Y-64977000D01*
X132954718Y-64977000D01*
X133336670Y-64901025D01*
X133696461Y-64751995D01*
X134020264Y-64535636D01*
X134030000Y-64525900D01*
X134039736Y-64535636D01*
X134363539Y-64751995D01*
X134723330Y-64901025D01*
X135105282Y-64977000D01*
X135494718Y-64977000D01*
X135876670Y-64901025D01*
X136236461Y-64751995D01*
X136560264Y-64535636D01*
X136570000Y-64525900D01*
X136579736Y-64535636D01*
X136903539Y-64751995D01*
X137263330Y-64901025D01*
X137645282Y-64977000D01*
X138034718Y-64977000D01*
X138416670Y-64901025D01*
X138776461Y-64751995D01*
X139100264Y-64535636D01*
X139110000Y-64525900D01*
X139119736Y-64535636D01*
X139443539Y-64751995D01*
X139803330Y-64901025D01*
X140185282Y-64977000D01*
X140574718Y-64977000D01*
X140956670Y-64901025D01*
X141316461Y-64751995D01*
X141640264Y-64535636D01*
X141650000Y-64525900D01*
X141659736Y-64535636D01*
X141983539Y-64751995D01*
X142343330Y-64901025D01*
X142725282Y-64977000D01*
X143114718Y-64977000D01*
X143496670Y-64901025D01*
X143856461Y-64751995D01*
X144180264Y-64535636D01*
X144190000Y-64525900D01*
X144199736Y-64535636D01*
X144523539Y-64751995D01*
X144883330Y-64901025D01*
X145265282Y-64977000D01*
X145654718Y-64977000D01*
X146036670Y-64901025D01*
X146396461Y-64751995D01*
X146438421Y-64723958D01*
X146520843Y-64791600D01*
X146716629Y-64896250D01*
X146929069Y-64960693D01*
X147150000Y-64982453D01*
X148850000Y-64982453D01*
X149070931Y-64960693D01*
X149283371Y-64896250D01*
X149479157Y-64791600D01*
X149650765Y-64650765D01*
X149791600Y-64479157D01*
X149896250Y-64283371D01*
X149960693Y-64070931D01*
X149982453Y-63850000D01*
X149982453Y-62150000D01*
X149960693Y-61929069D01*
X149896250Y-61716629D01*
X149791600Y-61520843D01*
X149650765Y-61349235D01*
X149479157Y-61208400D01*
X149283371Y-61103750D01*
X149070931Y-61039307D01*
X148850000Y-61017547D01*
X147150000Y-61017547D01*
X146929069Y-61039307D01*
X146716629Y-61103750D01*
X146520843Y-61208400D01*
X146438421Y-61276042D01*
X146396461Y-61248005D01*
X146036670Y-61098975D01*
X145654718Y-61023000D01*
X145265282Y-61023000D01*
X144883330Y-61098975D01*
X144523539Y-61248005D01*
X144199736Y-61464364D01*
X144190000Y-61474100D01*
X144180264Y-61464364D01*
X143856461Y-61248005D01*
X143496670Y-61098975D01*
X143114718Y-61023000D01*
X142725282Y-61023000D01*
X142343330Y-61098975D01*
X141983539Y-61248005D01*
X141659736Y-61464364D01*
X141650000Y-61474100D01*
X141640264Y-61464364D01*
X141316461Y-61248005D01*
X140956670Y-61098975D01*
X140574718Y-61023000D01*
X140185282Y-61023000D01*
X139803330Y-61098975D01*
X139443539Y-61248005D01*
X139217000Y-61399374D01*
X139217000Y-61230371D01*
X139570372Y-60877000D01*
X156929629Y-60877000D01*
X157163001Y-61110373D01*
X157163000Y-65067236D01*
X157070931Y-65039307D01*
X156850000Y-65017547D01*
X155150000Y-65017547D01*
X154929069Y-65039307D01*
X154716629Y-65103750D01*
X154520843Y-65208400D01*
X154349235Y-65349235D01*
X154208400Y-65520843D01*
X154103750Y-65716629D01*
X154039307Y-65929069D01*
X154017547Y-66150000D01*
X154017547Y-67850000D01*
X154039307Y-68070931D01*
X154103750Y-68283371D01*
X154208400Y-68479157D01*
X154349235Y-68650765D01*
X154520843Y-68791600D01*
X154716629Y-68896250D01*
X154929069Y-68960693D01*
X155150000Y-68982453D01*
X156850000Y-68982453D01*
X157070931Y-68960693D01*
X157283371Y-68896250D01*
X157479157Y-68791600D01*
X157561579Y-68723958D01*
X157603539Y-68751995D01*
X157963330Y-68901025D01*
X158345282Y-68977000D01*
X158734718Y-68977000D01*
X159116670Y-68901025D01*
X159476461Y-68751995D01*
X159800264Y-68535636D01*
X159810000Y-68525900D01*
X159819736Y-68535636D01*
X160143539Y-68751995D01*
X160503330Y-68901025D01*
X160885282Y-68977000D01*
X161274718Y-68977000D01*
X161656670Y-68901025D01*
X162016461Y-68751995D01*
X162340264Y-68535636D01*
X162350000Y-68525900D01*
X162359736Y-68535636D01*
X162683539Y-68751995D01*
X163043330Y-68901025D01*
X163425282Y-68977000D01*
X163814718Y-68977000D01*
X164196670Y-68901025D01*
X164556461Y-68751995D01*
X164880264Y-68535636D01*
X164890000Y-68525900D01*
X164899736Y-68535636D01*
X165223539Y-68751995D01*
X165583330Y-68901025D01*
X165965282Y-68977000D01*
X166354718Y-68977000D01*
X166736670Y-68901025D01*
X167096461Y-68751995D01*
X167420264Y-68535636D01*
X167430000Y-68525900D01*
X167439736Y-68535636D01*
X167763539Y-68751995D01*
X168123330Y-68901025D01*
X168505282Y-68977000D01*
X168894718Y-68977000D01*
X169276670Y-68901025D01*
X169636461Y-68751995D01*
X169669378Y-68730000D01*
X178517547Y-68730000D01*
X178517547Y-70430000D01*
X178539307Y-70650931D01*
X178603750Y-70863371D01*
X178708400Y-71059157D01*
X178849235Y-71230765D01*
X179020843Y-71371600D01*
X179216629Y-71476250D01*
X179429069Y-71540693D01*
X179650000Y-71562453D01*
X181350000Y-71562453D01*
X181570931Y-71540693D01*
X181783371Y-71476250D01*
X181979157Y-71371600D01*
X182150765Y-71230765D01*
X182291600Y-71059157D01*
X182396250Y-70863371D01*
X182460693Y-70650931D01*
X182482453Y-70430000D01*
X182482453Y-68730000D01*
X182460693Y-68509069D01*
X182396250Y-68296629D01*
X182291600Y-68100843D01*
X182223958Y-68018421D01*
X182251995Y-67976461D01*
X182401025Y-67616670D01*
X182477000Y-67234718D01*
X182477000Y-66845282D01*
X182401025Y-66463330D01*
X182251995Y-66103539D01*
X182035636Y-65779736D01*
X182025900Y-65770000D01*
X182035636Y-65760264D01*
X182251995Y-65436461D01*
X182401025Y-65076670D01*
X182477000Y-64694718D01*
X182477000Y-64305282D01*
X182401025Y-63923330D01*
X182251995Y-63563539D01*
X182035636Y-63239736D01*
X182025900Y-63230000D01*
X182035636Y-63220264D01*
X182251995Y-62896461D01*
X182401025Y-62536670D01*
X182477000Y-62154718D01*
X182477000Y-61765282D01*
X182401025Y-61383330D01*
X182251995Y-61023539D01*
X182035636Y-60699736D01*
X182025900Y-60690000D01*
X182035636Y-60680264D01*
X182251995Y-60356461D01*
X182401025Y-59996670D01*
X182477000Y-59614718D01*
X182477000Y-59225282D01*
X182401025Y-58843330D01*
X182251995Y-58483539D01*
X182057206Y-58192017D01*
X192373000Y-58192017D01*
X192373000Y-58807983D01*
X192493169Y-59412112D01*
X192728889Y-59981190D01*
X193071101Y-60493346D01*
X193506654Y-60928899D01*
X194018810Y-61271111D01*
X194587888Y-61506831D01*
X195192017Y-61627000D01*
X195807983Y-61627000D01*
X196412112Y-61506831D01*
X196981190Y-61271111D01*
X197493346Y-60928899D01*
X197928899Y-60493346D01*
X198271111Y-59981190D01*
X198506831Y-59412112D01*
X198627000Y-58807983D01*
X198627000Y-58192017D01*
X198506831Y-57587888D01*
X198271111Y-57018810D01*
X197928899Y-56506654D01*
X197493346Y-56071101D01*
X196981190Y-55728889D01*
X196412112Y-55493169D01*
X195807983Y-55373000D01*
X195192017Y-55373000D01*
X194587888Y-55493169D01*
X194018810Y-55728889D01*
X193506654Y-56071101D01*
X193071101Y-56506654D01*
X192728889Y-57018810D01*
X192493169Y-57587888D01*
X192373000Y-58192017D01*
X182057206Y-58192017D01*
X182035636Y-58159736D01*
X181760264Y-57884364D01*
X181436461Y-57668005D01*
X181076670Y-57518975D01*
X180694718Y-57443000D01*
X180305282Y-57443000D01*
X179923330Y-57518975D01*
X179563539Y-57668005D01*
X179239736Y-57884364D01*
X178964364Y-58159736D01*
X178748005Y-58483539D01*
X178598975Y-58843330D01*
X178523000Y-59225282D01*
X178523000Y-59614718D01*
X178598975Y-59996670D01*
X178748005Y-60356461D01*
X178964364Y-60680264D01*
X178974100Y-60690000D01*
X178964364Y-60699736D01*
X178748005Y-61023539D01*
X178598975Y-61383330D01*
X178523000Y-61765282D01*
X178523000Y-62154718D01*
X178598975Y-62536670D01*
X178748005Y-62896461D01*
X178964364Y-63220264D01*
X178974100Y-63230000D01*
X178964364Y-63239736D01*
X178748005Y-63563539D01*
X178598975Y-63923330D01*
X178523000Y-64305282D01*
X178523000Y-64694718D01*
X178598975Y-65076670D01*
X178748005Y-65436461D01*
X178964364Y-65760264D01*
X178974100Y-65770000D01*
X178964364Y-65779736D01*
X178748005Y-66103539D01*
X178598975Y-66463330D01*
X178523000Y-66845282D01*
X178523000Y-67234718D01*
X178598975Y-67616670D01*
X178748005Y-67976461D01*
X178776042Y-68018421D01*
X178708400Y-68100843D01*
X178603750Y-68296629D01*
X178539307Y-68509069D01*
X178517547Y-68730000D01*
X169669378Y-68730000D01*
X169960264Y-68535636D01*
X170235636Y-68260264D01*
X170451995Y-67936461D01*
X170601025Y-67576670D01*
X170677000Y-67194718D01*
X170677000Y-66805282D01*
X170601025Y-66423330D01*
X170451995Y-66063539D01*
X170235636Y-65739736D01*
X169960264Y-65464364D01*
X169636461Y-65248005D01*
X169276670Y-65098975D01*
X168894718Y-65023000D01*
X168505282Y-65023000D01*
X168123330Y-65098975D01*
X167763539Y-65248005D01*
X167439736Y-65464364D01*
X167430000Y-65474100D01*
X167420264Y-65464364D01*
X167096461Y-65248005D01*
X166736670Y-65098975D01*
X166354718Y-65023000D01*
X165965282Y-65023000D01*
X165583330Y-65098975D01*
X165223539Y-65248005D01*
X164899736Y-65464364D01*
X164890000Y-65474100D01*
X164880264Y-65464364D01*
X164556461Y-65248005D01*
X164196670Y-65098975D01*
X163814718Y-65023000D01*
X163425282Y-65023000D01*
X163043330Y-65098975D01*
X162683539Y-65248005D01*
X162359736Y-65464364D01*
X162350000Y-65474100D01*
X162340264Y-65464364D01*
X162016461Y-65248005D01*
X161656670Y-65098975D01*
X161274718Y-65023000D01*
X160885282Y-65023000D01*
X160503330Y-65098975D01*
X160143539Y-65248005D01*
X159917000Y-65399374D01*
X159917000Y-60607639D01*
X159923662Y-60539999D01*
X159897075Y-60270060D01*
X159818337Y-60010495D01*
X159754615Y-59891280D01*
X159690473Y-59771279D01*
X159518397Y-59561603D01*
X159465855Y-59518483D01*
X158521521Y-58574150D01*
X158478397Y-58521603D01*
X158268721Y-58349527D01*
X158029505Y-58221663D01*
X157769939Y-58142925D01*
X157567640Y-58123000D01*
X157500000Y-58116338D01*
X157432360Y-58123000D01*
X139067640Y-58123000D01*
X139000000Y-58116338D01*
X138730060Y-58142925D01*
X138674642Y-58159736D01*
X138470495Y-58221663D01*
X138231279Y-58349527D01*
X138021603Y-58521603D01*
X137978483Y-58574145D01*
X136914146Y-59638483D01*
X136861603Y-59681604D01*
X136689527Y-59891280D01*
X136633195Y-59996670D01*
X136561663Y-60130496D01*
X136482925Y-60390061D01*
X136456338Y-60660000D01*
X136463000Y-60727640D01*
X136463000Y-61399374D01*
X136236461Y-61248005D01*
X135876670Y-61098975D01*
X135494718Y-61023000D01*
X135105282Y-61023000D01*
X134723330Y-61098975D01*
X134363539Y-61248005D01*
X134039736Y-61464364D01*
X134030000Y-61474100D01*
X134020264Y-61464364D01*
X133696461Y-61248005D01*
X133336670Y-61098975D01*
X132954718Y-61023000D01*
X132565282Y-61023000D01*
X132183330Y-61098975D01*
X131823539Y-61248005D01*
X131499736Y-61464364D01*
X131490000Y-61474100D01*
X131480264Y-61464364D01*
X131156461Y-61248005D01*
X130796670Y-61098975D01*
X130414718Y-61023000D01*
X130025282Y-61023000D01*
X129643330Y-61098975D01*
X129283539Y-61248005D01*
X128959736Y-61464364D01*
X128950000Y-61474100D01*
X128940264Y-61464364D01*
X128616461Y-61248005D01*
X128256670Y-61098975D01*
X127874718Y-61023000D01*
X127485282Y-61023000D01*
X127103330Y-61098975D01*
X126743539Y-61248005D01*
X126419736Y-61464364D01*
X126410000Y-61474100D01*
X126400264Y-61464364D01*
X126076461Y-61248005D01*
X125716670Y-61098975D01*
X125334718Y-61023000D01*
X124945282Y-61023000D01*
X124563330Y-61098975D01*
X124203539Y-61248005D01*
X123879736Y-61464364D01*
X123604364Y-61739736D01*
X123388005Y-62063539D01*
X123238975Y-62423330D01*
X123163000Y-62805282D01*
X114152000Y-62805282D01*
X114152000Y-58192017D01*
X114873000Y-58192017D01*
X114873000Y-58807983D01*
X114993169Y-59412112D01*
X115228889Y-59981190D01*
X115571101Y-60493346D01*
X116006654Y-60928899D01*
X116518810Y-61271111D01*
X117087888Y-61506831D01*
X117692017Y-61627000D01*
X118307983Y-61627000D01*
X118912112Y-61506831D01*
X119481190Y-61271111D01*
X119993346Y-60928899D01*
X120428899Y-60493346D01*
X120771111Y-59981190D01*
X121006831Y-59412112D01*
X121127000Y-58807983D01*
X121127000Y-58192017D01*
X121006831Y-57587888D01*
X120771111Y-57018810D01*
X120428899Y-56506654D01*
X119993346Y-56071101D01*
X119481190Y-55728889D01*
X118912112Y-55493169D01*
X118307983Y-55373000D01*
X117692017Y-55373000D01*
X117087888Y-55493169D01*
X116518810Y-55728889D01*
X116006654Y-56071101D01*
X115571101Y-56506654D01*
X115228889Y-57018810D01*
X114993169Y-57587888D01*
X114873000Y-58192017D01*
X114152000Y-58192017D01*
X114152000Y-52652000D01*
X199348000Y-52652000D01*
X199348001Y-95848000D01*
G37*
X199348001Y-95848000D02*
X114152000Y-95848000D01*
X114152000Y-89692017D01*
X114873000Y-89692017D01*
X114873000Y-90307983D01*
X114993169Y-90912112D01*
X115228889Y-91481190D01*
X115571101Y-91993346D01*
X116006654Y-92428899D01*
X116518810Y-92771111D01*
X117087888Y-93006831D01*
X117692017Y-93127000D01*
X118307983Y-93127000D01*
X118912112Y-93006831D01*
X119481190Y-92771111D01*
X119993346Y-92428899D01*
X120428899Y-91993346D01*
X120771111Y-91481190D01*
X121006831Y-90912112D01*
X121127000Y-90307983D01*
X121127000Y-89692017D01*
X121006831Y-89087888D01*
X120771111Y-88518810D01*
X120428899Y-88006654D01*
X119993346Y-87571101D01*
X119481190Y-87228889D01*
X118912112Y-86993169D01*
X118307983Y-86873000D01*
X117692017Y-86873000D01*
X117087888Y-86993169D01*
X116518810Y-87228889D01*
X116006654Y-87571101D01*
X115571101Y-88006654D01*
X115228889Y-88518810D01*
X114993169Y-89087888D01*
X114873000Y-89692017D01*
X114152000Y-89692017D01*
X114152000Y-85805282D01*
X123163000Y-85805282D01*
X123163000Y-86194718D01*
X123238975Y-86576670D01*
X123388005Y-86936461D01*
X123604364Y-87260264D01*
X123879736Y-87535636D01*
X124203539Y-87751995D01*
X124563330Y-87901025D01*
X124945282Y-87977000D01*
X125334718Y-87977000D01*
X125716670Y-87901025D01*
X126076461Y-87751995D01*
X126400264Y-87535636D01*
X126410000Y-87525900D01*
X126419736Y-87535636D01*
X126743539Y-87751995D01*
X127103330Y-87901025D01*
X127485282Y-87977000D01*
X127874718Y-87977000D01*
X128256670Y-87901025D01*
X128616461Y-87751995D01*
X128940264Y-87535636D01*
X128950000Y-87525900D01*
X128959736Y-87535636D01*
X129283539Y-87751995D01*
X129643330Y-87901025D01*
X130025282Y-87977000D01*
X130414718Y-87977000D01*
X130796670Y-87901025D01*
X131156461Y-87751995D01*
X131480264Y-87535636D01*
X131490000Y-87525900D01*
X131499736Y-87535636D01*
X131823539Y-87751995D01*
X132183330Y-87901025D01*
X132565282Y-87977000D01*
X132954718Y-87977000D01*
X133336670Y-87901025D01*
X133696461Y-87751995D01*
X134020264Y-87535636D01*
X134030000Y-87525900D01*
X134039736Y-87535636D01*
X134363539Y-87751995D01*
X134723330Y-87901025D01*
X135105282Y-87977000D01*
X135494718Y-87977000D01*
X135876670Y-87901025D01*
X136236461Y-87751995D01*
X136560264Y-87535636D01*
X136570000Y-87525900D01*
X136579736Y-87535636D01*
X136903539Y-87751995D01*
X137263330Y-87901025D01*
X137645282Y-87977000D01*
X138034718Y-87977000D01*
X138416670Y-87901025D01*
X138776461Y-87751995D01*
X139100264Y-87535636D01*
X139110000Y-87525900D01*
X139119736Y-87535636D01*
X139443539Y-87751995D01*
X139803330Y-87901025D01*
X140185282Y-87977000D01*
X140574718Y-87977000D01*
X140956670Y-87901025D01*
X141316461Y-87751995D01*
X141640264Y-87535636D01*
X141650000Y-87525900D01*
X141659736Y-87535636D01*
X141983539Y-87751995D01*
X142343330Y-87901025D01*
X142725282Y-87977000D01*
X143114718Y-87977000D01*
X143496670Y-87901025D01*
X143856461Y-87751995D01*
X144180264Y-87535636D01*
X144190000Y-87525900D01*
X144199736Y-87535636D01*
X144523539Y-87751995D01*
X144883330Y-87901025D01*
X145265282Y-87977000D01*
X145654718Y-87977000D01*
X146036670Y-87901025D01*
X146396461Y-87751995D01*
X146438421Y-87723958D01*
X146520843Y-87791600D01*
X146716629Y-87896250D01*
X146929069Y-87960693D01*
X147150000Y-87982453D01*
X148850000Y-87982453D01*
X149070931Y-87960693D01*
X149283371Y-87896250D01*
X149479157Y-87791600D01*
X149650765Y-87650765D01*
X149791600Y-87479157D01*
X149896250Y-87283371D01*
X149960693Y-87070931D01*
X149982453Y-86850000D01*
X149982453Y-85150000D01*
X149960693Y-84929069D01*
X149896250Y-84716629D01*
X149791600Y-84520843D01*
X149650765Y-84349235D01*
X149479157Y-84208400D01*
X149369899Y-84150000D01*
X155017547Y-84150000D01*
X155017547Y-85850000D01*
X155039307Y-86070931D01*
X155103750Y-86283371D01*
X155208400Y-86479157D01*
X155276042Y-86561579D01*
X155248005Y-86603539D01*
X155098975Y-86963330D01*
X155023000Y-87345282D01*
X155023000Y-87734718D01*
X155098975Y-88116670D01*
X155248005Y-88476461D01*
X155464364Y-88800264D01*
X155474100Y-88810000D01*
X155464364Y-88819736D01*
X155248005Y-89143539D01*
X155098975Y-89503330D01*
X155023000Y-89885282D01*
X155023000Y-90274718D01*
X155098975Y-90656670D01*
X155248005Y-91016461D01*
X155464364Y-91340264D01*
X155474100Y-91350000D01*
X155464364Y-91359736D01*
X155248005Y-91683539D01*
X155098975Y-92043330D01*
X155023000Y-92425282D01*
X155023000Y-92814718D01*
X155098975Y-93196670D01*
X155248005Y-93556461D01*
X155464364Y-93880264D01*
X155739736Y-94155636D01*
X156063539Y-94371995D01*
X156423330Y-94521025D01*
X156805282Y-94597000D01*
X157194718Y-94597000D01*
X157576670Y-94521025D01*
X157936461Y-94371995D01*
X158260264Y-94155636D01*
X158535636Y-93880264D01*
X158751995Y-93556461D01*
X158901025Y-93196670D01*
X158977000Y-92814718D01*
X158977000Y-92425282D01*
X158901025Y-92043330D01*
X158751995Y-91683539D01*
X158535636Y-91359736D01*
X158525900Y-91350000D01*
X158535636Y-91340264D01*
X158751995Y-91016461D01*
X158901025Y-90656670D01*
X158977000Y-90274718D01*
X158977000Y-89885282D01*
X158938558Y-89692017D01*
X192373000Y-89692017D01*
X192373000Y-90307983D01*
X192493169Y-90912112D01*
X192728889Y-91481190D01*
X193071101Y-91993346D01*
X193506654Y-92428899D01*
X194018810Y-92771111D01*
X194587888Y-93006831D01*
X195192017Y-93127000D01*
X195807983Y-93127000D01*
X196412112Y-93006831D01*
X196981190Y-92771111D01*
X197493346Y-92428899D01*
X197928899Y-91993346D01*
X198271111Y-91481190D01*
X198506831Y-90912112D01*
X198627000Y-90307983D01*
X198627000Y-89692017D01*
X198506831Y-89087888D01*
X198271111Y-88518810D01*
X197928899Y-88006654D01*
X197493346Y-87571101D01*
X196981190Y-87228889D01*
X196412112Y-86993169D01*
X195807983Y-86873000D01*
X195192017Y-86873000D01*
X194587888Y-86993169D01*
X194018810Y-87228889D01*
X193506654Y-87571101D01*
X193071101Y-88006654D01*
X192728889Y-88518810D01*
X192493169Y-89087888D01*
X192373000Y-89692017D01*
X158938558Y-89692017D01*
X158901025Y-89503330D01*
X158751995Y-89143539D01*
X158535636Y-88819736D01*
X158525900Y-88810000D01*
X158535636Y-88800264D01*
X158751995Y-88476461D01*
X158901025Y-88116670D01*
X158977000Y-87734718D01*
X158977000Y-87345282D01*
X158901025Y-86963330D01*
X158751995Y-86603539D01*
X158723958Y-86561579D01*
X158791600Y-86479157D01*
X158896250Y-86283371D01*
X158960693Y-86070931D01*
X158982453Y-85850000D01*
X158982453Y-84150000D01*
X158960693Y-83929069D01*
X158896250Y-83716629D01*
X158791600Y-83520843D01*
X158650765Y-83349235D01*
X158479157Y-83208400D01*
X158283371Y-83103750D01*
X158070931Y-83039307D01*
X157850000Y-83017547D01*
X156150000Y-83017547D01*
X155929069Y-83039307D01*
X155716629Y-83103750D01*
X155520843Y-83208400D01*
X155349235Y-83349235D01*
X155208400Y-83520843D01*
X155103750Y-83716629D01*
X155039307Y-83929069D01*
X155017547Y-84150000D01*
X149369899Y-84150000D01*
X149283371Y-84103750D01*
X149070931Y-84039307D01*
X148850000Y-84017547D01*
X147150000Y-84017547D01*
X146929069Y-84039307D01*
X146716629Y-84103750D01*
X146520843Y-84208400D01*
X146438421Y-84276042D01*
X146396461Y-84248005D01*
X146036670Y-84098975D01*
X145654718Y-84023000D01*
X145265282Y-84023000D01*
X144883330Y-84098975D01*
X144523539Y-84248005D01*
X144199736Y-84464364D01*
X144190000Y-84474100D01*
X144180264Y-84464364D01*
X143856461Y-84248005D01*
X143496670Y-84098975D01*
X143114718Y-84023000D01*
X142725282Y-84023000D01*
X142343330Y-84098975D01*
X141983539Y-84248005D01*
X141659736Y-84464364D01*
X141650000Y-84474100D01*
X141640264Y-84464364D01*
X141316461Y-84248005D01*
X140956670Y-84098975D01*
X140574718Y-84023000D01*
X140185282Y-84023000D01*
X139803330Y-84098975D01*
X139443539Y-84248005D01*
X139119736Y-84464364D01*
X139110000Y-84474100D01*
X139100264Y-84464364D01*
X138776461Y-84248005D01*
X138416670Y-84098975D01*
X138034718Y-84023000D01*
X137645282Y-84023000D01*
X137263330Y-84098975D01*
X136903539Y-84248005D01*
X136579736Y-84464364D01*
X136570000Y-84474100D01*
X136560264Y-84464364D01*
X136236461Y-84248005D01*
X135876670Y-84098975D01*
X135494718Y-84023000D01*
X135105282Y-84023000D01*
X134723330Y-84098975D01*
X134363539Y-84248005D01*
X134039736Y-84464364D01*
X134030000Y-84474100D01*
X134020264Y-84464364D01*
X133696461Y-84248005D01*
X133336670Y-84098975D01*
X132954718Y-84023000D01*
X132565282Y-84023000D01*
X132183330Y-84098975D01*
X131823539Y-84248005D01*
X131499736Y-84464364D01*
X131490000Y-84474100D01*
X131480264Y-84464364D01*
X131156461Y-84248005D01*
X130796670Y-84098975D01*
X130414718Y-84023000D01*
X130025282Y-84023000D01*
X129643330Y-84098975D01*
X129283539Y-84248005D01*
X128959736Y-84464364D01*
X128950000Y-84474100D01*
X128940264Y-84464364D01*
X128616461Y-84248005D01*
X128256670Y-84098975D01*
X127874718Y-84023000D01*
X127485282Y-84023000D01*
X127103330Y-84098975D01*
X126743539Y-84248005D01*
X126419736Y-84464364D01*
X126410000Y-84474100D01*
X126400264Y-84464364D01*
X126076461Y-84248005D01*
X125716670Y-84098975D01*
X125334718Y-84023000D01*
X124945282Y-84023000D01*
X124563330Y-84098975D01*
X124203539Y-84248005D01*
X123879736Y-84464364D01*
X123604364Y-84739736D01*
X123388005Y-85063539D01*
X123238975Y-85423330D01*
X123163000Y-85805282D01*
X114152000Y-85805282D01*
X114152000Y-62805282D01*
X123163000Y-62805282D01*
X123163000Y-63194718D01*
X123238975Y-63576670D01*
X123388005Y-63936461D01*
X123604364Y-64260264D01*
X123879736Y-64535636D01*
X124203539Y-64751995D01*
X124563330Y-64901025D01*
X124945282Y-64977000D01*
X125334718Y-64977000D01*
X125716670Y-64901025D01*
X126076461Y-64751995D01*
X126400264Y-64535636D01*
X126410000Y-64525900D01*
X126419736Y-64535636D01*
X126743539Y-64751995D01*
X127103330Y-64901025D01*
X127485282Y-64977000D01*
X127874718Y-64977000D01*
X128256670Y-64901025D01*
X128616461Y-64751995D01*
X128940264Y-64535636D01*
X128950000Y-64525900D01*
X128959736Y-64535636D01*
X129283539Y-64751995D01*
X129643330Y-64901025D01*
X130025282Y-64977000D01*
X130414718Y-64977000D01*
X130796670Y-64901025D01*
X131156461Y-64751995D01*
X131480264Y-64535636D01*
X131490000Y-64525900D01*
X131499736Y-64535636D01*
X131823539Y-64751995D01*
X132183330Y-64901025D01*
X132565282Y-64977000D01*
X132954718Y-64977000D01*
X133336670Y-64901025D01*
X133696461Y-64751995D01*
X134020264Y-64535636D01*
X134030000Y-64525900D01*
X134039736Y-64535636D01*
X134363539Y-64751995D01*
X134723330Y-64901025D01*
X135105282Y-64977000D01*
X135494718Y-64977000D01*
X135876670Y-64901025D01*
X136236461Y-64751995D01*
X136560264Y-64535636D01*
X136570000Y-64525900D01*
X136579736Y-64535636D01*
X136903539Y-64751995D01*
X137263330Y-64901025D01*
X137645282Y-64977000D01*
X138034718Y-64977000D01*
X138416670Y-64901025D01*
X138776461Y-64751995D01*
X139100264Y-64535636D01*
X139110000Y-64525900D01*
X139119736Y-64535636D01*
X139443539Y-64751995D01*
X139803330Y-64901025D01*
X140185282Y-64977000D01*
X140574718Y-64977000D01*
X140956670Y-64901025D01*
X141316461Y-64751995D01*
X141640264Y-64535636D01*
X141650000Y-64525900D01*
X141659736Y-64535636D01*
X141983539Y-64751995D01*
X142343330Y-64901025D01*
X142725282Y-64977000D01*
X143114718Y-64977000D01*
X143496670Y-64901025D01*
X143856461Y-64751995D01*
X144180264Y-64535636D01*
X144190000Y-64525900D01*
X144199736Y-64535636D01*
X144523539Y-64751995D01*
X144883330Y-64901025D01*
X145265282Y-64977000D01*
X145654718Y-64977000D01*
X146036670Y-64901025D01*
X146396461Y-64751995D01*
X146438421Y-64723958D01*
X146520843Y-64791600D01*
X146716629Y-64896250D01*
X146929069Y-64960693D01*
X147150000Y-64982453D01*
X148850000Y-64982453D01*
X149070931Y-64960693D01*
X149283371Y-64896250D01*
X149479157Y-64791600D01*
X149650765Y-64650765D01*
X149791600Y-64479157D01*
X149896250Y-64283371D01*
X149960693Y-64070931D01*
X149982453Y-63850000D01*
X149982453Y-62150000D01*
X149960693Y-61929069D01*
X149896250Y-61716629D01*
X149791600Y-61520843D01*
X149650765Y-61349235D01*
X149479157Y-61208400D01*
X149283371Y-61103750D01*
X149070931Y-61039307D01*
X148850000Y-61017547D01*
X147150000Y-61017547D01*
X146929069Y-61039307D01*
X146716629Y-61103750D01*
X146520843Y-61208400D01*
X146438421Y-61276042D01*
X146396461Y-61248005D01*
X146036670Y-61098975D01*
X145654718Y-61023000D01*
X145265282Y-61023000D01*
X144883330Y-61098975D01*
X144523539Y-61248005D01*
X144199736Y-61464364D01*
X144190000Y-61474100D01*
X144180264Y-61464364D01*
X143856461Y-61248005D01*
X143496670Y-61098975D01*
X143114718Y-61023000D01*
X142725282Y-61023000D01*
X142343330Y-61098975D01*
X141983539Y-61248005D01*
X141659736Y-61464364D01*
X141650000Y-61474100D01*
X141640264Y-61464364D01*
X141316461Y-61248005D01*
X140956670Y-61098975D01*
X140574718Y-61023000D01*
X140185282Y-61023000D01*
X139803330Y-61098975D01*
X139443539Y-61248005D01*
X139217000Y-61399374D01*
X139217000Y-61230371D01*
X139570372Y-60877000D01*
X156929629Y-60877000D01*
X157163001Y-61110373D01*
X157163000Y-65067236D01*
X157070931Y-65039307D01*
X156850000Y-65017547D01*
X155150000Y-65017547D01*
X154929069Y-65039307D01*
X154716629Y-65103750D01*
X154520843Y-65208400D01*
X154349235Y-65349235D01*
X154208400Y-65520843D01*
X154103750Y-65716629D01*
X154039307Y-65929069D01*
X154017547Y-66150000D01*
X154017547Y-67850000D01*
X154039307Y-68070931D01*
X154103750Y-68283371D01*
X154208400Y-68479157D01*
X154349235Y-68650765D01*
X154520843Y-68791600D01*
X154716629Y-68896250D01*
X154929069Y-68960693D01*
X155150000Y-68982453D01*
X156850000Y-68982453D01*
X157070931Y-68960693D01*
X157283371Y-68896250D01*
X157479157Y-68791600D01*
X157561579Y-68723958D01*
X157603539Y-68751995D01*
X157963330Y-68901025D01*
X158345282Y-68977000D01*
X158734718Y-68977000D01*
X159116670Y-68901025D01*
X159476461Y-68751995D01*
X159800264Y-68535636D01*
X159810000Y-68525900D01*
X159819736Y-68535636D01*
X160143539Y-68751995D01*
X160503330Y-68901025D01*
X160885282Y-68977000D01*
X161274718Y-68977000D01*
X161656670Y-68901025D01*
X162016461Y-68751995D01*
X162340264Y-68535636D01*
X162350000Y-68525900D01*
X162359736Y-68535636D01*
X162683539Y-68751995D01*
X163043330Y-68901025D01*
X163425282Y-68977000D01*
X163814718Y-68977000D01*
X164196670Y-68901025D01*
X164556461Y-68751995D01*
X164880264Y-68535636D01*
X164890000Y-68525900D01*
X164899736Y-68535636D01*
X165223539Y-68751995D01*
X165583330Y-68901025D01*
X165965282Y-68977000D01*
X166354718Y-68977000D01*
X166736670Y-68901025D01*
X167096461Y-68751995D01*
X167420264Y-68535636D01*
X167430000Y-68525900D01*
X167439736Y-68535636D01*
X167763539Y-68751995D01*
X168123330Y-68901025D01*
X168505282Y-68977000D01*
X168894718Y-68977000D01*
X169276670Y-68901025D01*
X169636461Y-68751995D01*
X169669378Y-68730000D01*
X178517547Y-68730000D01*
X178517547Y-70430000D01*
X178539307Y-70650931D01*
X178603750Y-70863371D01*
X178708400Y-71059157D01*
X178849235Y-71230765D01*
X179020843Y-71371600D01*
X179216629Y-71476250D01*
X179429069Y-71540693D01*
X179650000Y-71562453D01*
X181350000Y-71562453D01*
X181570931Y-71540693D01*
X181783371Y-71476250D01*
X181979157Y-71371600D01*
X182150765Y-71230765D01*
X182291600Y-71059157D01*
X182396250Y-70863371D01*
X182460693Y-70650931D01*
X182482453Y-70430000D01*
X182482453Y-68730000D01*
X182460693Y-68509069D01*
X182396250Y-68296629D01*
X182291600Y-68100843D01*
X182223958Y-68018421D01*
X182251995Y-67976461D01*
X182401025Y-67616670D01*
X182477000Y-67234718D01*
X182477000Y-66845282D01*
X182401025Y-66463330D01*
X182251995Y-66103539D01*
X182035636Y-65779736D01*
X182025900Y-65770000D01*
X182035636Y-65760264D01*
X182251995Y-65436461D01*
X182401025Y-65076670D01*
X182477000Y-64694718D01*
X182477000Y-64305282D01*
X182401025Y-63923330D01*
X182251995Y-63563539D01*
X182035636Y-63239736D01*
X182025900Y-63230000D01*
X182035636Y-63220264D01*
X182251995Y-62896461D01*
X182401025Y-62536670D01*
X182477000Y-62154718D01*
X182477000Y-61765282D01*
X182401025Y-61383330D01*
X182251995Y-61023539D01*
X182035636Y-60699736D01*
X182025900Y-60690000D01*
X182035636Y-60680264D01*
X182251995Y-60356461D01*
X182401025Y-59996670D01*
X182477000Y-59614718D01*
X182477000Y-59225282D01*
X182401025Y-58843330D01*
X182251995Y-58483539D01*
X182057206Y-58192017D01*
X192373000Y-58192017D01*
X192373000Y-58807983D01*
X192493169Y-59412112D01*
X192728889Y-59981190D01*
X193071101Y-60493346D01*
X193506654Y-60928899D01*
X194018810Y-61271111D01*
X194587888Y-61506831D01*
X195192017Y-61627000D01*
X195807983Y-61627000D01*
X196412112Y-61506831D01*
X196981190Y-61271111D01*
X197493346Y-60928899D01*
X197928899Y-60493346D01*
X198271111Y-59981190D01*
X198506831Y-59412112D01*
X198627000Y-58807983D01*
X198627000Y-58192017D01*
X198506831Y-57587888D01*
X198271111Y-57018810D01*
X197928899Y-56506654D01*
X197493346Y-56071101D01*
X196981190Y-55728889D01*
X196412112Y-55493169D01*
X195807983Y-55373000D01*
X195192017Y-55373000D01*
X194587888Y-55493169D01*
X194018810Y-55728889D01*
X193506654Y-56071101D01*
X193071101Y-56506654D01*
X192728889Y-57018810D01*
X192493169Y-57587888D01*
X192373000Y-58192017D01*
X182057206Y-58192017D01*
X182035636Y-58159736D01*
X181760264Y-57884364D01*
X181436461Y-57668005D01*
X181076670Y-57518975D01*
X180694718Y-57443000D01*
X180305282Y-57443000D01*
X179923330Y-57518975D01*
X179563539Y-57668005D01*
X179239736Y-57884364D01*
X178964364Y-58159736D01*
X178748005Y-58483539D01*
X178598975Y-58843330D01*
X178523000Y-59225282D01*
X178523000Y-59614718D01*
X178598975Y-59996670D01*
X178748005Y-60356461D01*
X178964364Y-60680264D01*
X178974100Y-60690000D01*
X178964364Y-60699736D01*
X178748005Y-61023539D01*
X178598975Y-61383330D01*
X178523000Y-61765282D01*
X178523000Y-62154718D01*
X178598975Y-62536670D01*
X178748005Y-62896461D01*
X178964364Y-63220264D01*
X178974100Y-63230000D01*
X178964364Y-63239736D01*
X178748005Y-63563539D01*
X178598975Y-63923330D01*
X178523000Y-64305282D01*
X178523000Y-64694718D01*
X178598975Y-65076670D01*
X178748005Y-65436461D01*
X178964364Y-65760264D01*
X178974100Y-65770000D01*
X178964364Y-65779736D01*
X178748005Y-66103539D01*
X178598975Y-66463330D01*
X178523000Y-66845282D01*
X178523000Y-67234718D01*
X178598975Y-67616670D01*
X178748005Y-67976461D01*
X178776042Y-68018421D01*
X178708400Y-68100843D01*
X178603750Y-68296629D01*
X178539307Y-68509069D01*
X178517547Y-68730000D01*
X169669378Y-68730000D01*
X169960264Y-68535636D01*
X170235636Y-68260264D01*
X170451995Y-67936461D01*
X170601025Y-67576670D01*
X170677000Y-67194718D01*
X170677000Y-66805282D01*
X170601025Y-66423330D01*
X170451995Y-66063539D01*
X170235636Y-65739736D01*
X169960264Y-65464364D01*
X169636461Y-65248005D01*
X169276670Y-65098975D01*
X168894718Y-65023000D01*
X168505282Y-65023000D01*
X168123330Y-65098975D01*
X167763539Y-65248005D01*
X167439736Y-65464364D01*
X167430000Y-65474100D01*
X167420264Y-65464364D01*
X167096461Y-65248005D01*
X166736670Y-65098975D01*
X166354718Y-65023000D01*
X165965282Y-65023000D01*
X165583330Y-65098975D01*
X165223539Y-65248005D01*
X164899736Y-65464364D01*
X164890000Y-65474100D01*
X164880264Y-65464364D01*
X164556461Y-65248005D01*
X164196670Y-65098975D01*
X163814718Y-65023000D01*
X163425282Y-65023000D01*
X163043330Y-65098975D01*
X162683539Y-65248005D01*
X162359736Y-65464364D01*
X162350000Y-65474100D01*
X162340264Y-65464364D01*
X162016461Y-65248005D01*
X161656670Y-65098975D01*
X161274718Y-65023000D01*
X160885282Y-65023000D01*
X160503330Y-65098975D01*
X160143539Y-65248005D01*
X159917000Y-65399374D01*
X159917000Y-60607639D01*
X159923662Y-60539999D01*
X159897075Y-60270060D01*
X159818337Y-60010495D01*
X159754615Y-59891280D01*
X159690473Y-59771279D01*
X159518397Y-59561603D01*
X159465855Y-59518483D01*
X158521521Y-58574150D01*
X158478397Y-58521603D01*
X158268721Y-58349527D01*
X158029505Y-58221663D01*
X157769939Y-58142925D01*
X157567640Y-58123000D01*
X157500000Y-58116338D01*
X157432360Y-58123000D01*
X139067640Y-58123000D01*
X139000000Y-58116338D01*
X138730060Y-58142925D01*
X138674642Y-58159736D01*
X138470495Y-58221663D01*
X138231279Y-58349527D01*
X138021603Y-58521603D01*
X137978483Y-58574145D01*
X136914146Y-59638483D01*
X136861603Y-59681604D01*
X136689527Y-59891280D01*
X136633195Y-59996670D01*
X136561663Y-60130496D01*
X136482925Y-60390061D01*
X136456338Y-60660000D01*
X136463000Y-60727640D01*
X136463000Y-61399374D01*
X136236461Y-61248005D01*
X135876670Y-61098975D01*
X135494718Y-61023000D01*
X135105282Y-61023000D01*
X134723330Y-61098975D01*
X134363539Y-61248005D01*
X134039736Y-61464364D01*
X134030000Y-61474100D01*
X134020264Y-61464364D01*
X133696461Y-61248005D01*
X133336670Y-61098975D01*
X132954718Y-61023000D01*
X132565282Y-61023000D01*
X132183330Y-61098975D01*
X131823539Y-61248005D01*
X131499736Y-61464364D01*
X131490000Y-61474100D01*
X131480264Y-61464364D01*
X131156461Y-61248005D01*
X130796670Y-61098975D01*
X130414718Y-61023000D01*
X130025282Y-61023000D01*
X129643330Y-61098975D01*
X129283539Y-61248005D01*
X128959736Y-61464364D01*
X128950000Y-61474100D01*
X128940264Y-61464364D01*
X128616461Y-61248005D01*
X128256670Y-61098975D01*
X127874718Y-61023000D01*
X127485282Y-61023000D01*
X127103330Y-61098975D01*
X126743539Y-61248005D01*
X126419736Y-61464364D01*
X126410000Y-61474100D01*
X126400264Y-61464364D01*
X126076461Y-61248005D01*
X125716670Y-61098975D01*
X125334718Y-61023000D01*
X124945282Y-61023000D01*
X124563330Y-61098975D01*
X124203539Y-61248005D01*
X123879736Y-61464364D01*
X123604364Y-61739736D01*
X123388005Y-62063539D01*
X123238975Y-62423330D01*
X123163000Y-62805282D01*
X114152000Y-62805282D01*
X114152000Y-58192017D01*
X114873000Y-58192017D01*
X114873000Y-58807983D01*
X114993169Y-59412112D01*
X115228889Y-59981190D01*
X115571101Y-60493346D01*
X116006654Y-60928899D01*
X116518810Y-61271111D01*
X117087888Y-61506831D01*
X117692017Y-61627000D01*
X118307983Y-61627000D01*
X118912112Y-61506831D01*
X119481190Y-61271111D01*
X119993346Y-60928899D01*
X120428899Y-60493346D01*
X120771111Y-59981190D01*
X121006831Y-59412112D01*
X121127000Y-58807983D01*
X121127000Y-58192017D01*
X121006831Y-57587888D01*
X120771111Y-57018810D01*
X120428899Y-56506654D01*
X119993346Y-56071101D01*
X119481190Y-55728889D01*
X118912112Y-55493169D01*
X118307983Y-55373000D01*
X117692017Y-55373000D01*
X117087888Y-55493169D01*
X116518810Y-55728889D01*
X116006654Y-56071101D01*
X115571101Y-56506654D01*
X115228889Y-57018810D01*
X114993169Y-57587888D01*
X114873000Y-58192017D01*
X114152000Y-58192017D01*
X114152000Y-52652000D01*
X199348000Y-52652000D01*
X199348001Y-95848000D01*
M02*
