%FSLAX45Y45*%
G04 Gerber Fmt 4.5, Leading zero omitted, Abs format (unit mm)*
G04 Created by KiCad (PCBNEW (5.1.6)-1) date 2021-07-17 16:45:11*
%MOMM*%
%LPD*%
G01*
G04 APERTURE LIST*
%TA.AperFunction,Profile*%
%ADD10C,0.050000*%
%TD*%
%ADD11C,0.200000*%
%ADD12C,0.300000*%
G04 APERTURE END LIST*
D10*
X11300000Y-5150000D02*
X20050000Y-5150000D01*
X11300000Y-9700000D02*
X11300000Y-5150000D01*
X20050000Y-9700000D02*
X11300000Y-9700000D01*
X20050000Y-5150000D02*
X20050000Y-9700000D01*
D11*
X19400000Y-8850000D02*
X19700000Y-9150000D01*
X19700000Y-8850000D02*
X19400000Y-9150000D01*
X11650000Y-5700000D02*
X11950000Y-6000000D01*
X11950000Y-5700000D02*
X11650000Y-6000000D01*
X11650000Y-8850000D02*
X11950000Y-9150000D01*
X11950000Y-8850000D02*
X11650000Y-9150000D01*
X19400000Y-5700000D02*
X19700000Y-6000000D01*
X19700000Y-5700000D02*
X19400000Y-6000000D01*
D12*
X11583928Y-10168214D02*
X11583928Y-9868214D01*
X11655357Y-9868214D01*
X11698214Y-9882500D01*
X11726786Y-9911072D01*
X11741071Y-9939643D01*
X11755357Y-9996786D01*
X11755357Y-10039643D01*
X11741071Y-10096786D01*
X11726786Y-10125357D01*
X11698214Y-10153929D01*
X11655357Y-10168214D01*
X11583928Y-10168214D01*
X11883928Y-10168214D02*
X11883928Y-9968214D01*
X11883928Y-10025357D02*
X11898214Y-9996786D01*
X11912500Y-9982500D01*
X11941071Y-9968214D01*
X11969643Y-9968214D01*
X12069643Y-10168214D02*
X12069643Y-9968214D01*
X12069643Y-9868214D02*
X12055357Y-9882500D01*
X12069643Y-9896786D01*
X12083928Y-9882500D01*
X12069643Y-9868214D01*
X12069643Y-9896786D01*
X12255357Y-10168214D02*
X12226786Y-10153929D01*
X12212500Y-10125357D01*
X12212500Y-9868214D01*
X12412500Y-10168214D02*
X12383928Y-10153929D01*
X12369643Y-10125357D01*
X12369643Y-9868214D01*
X12755357Y-10168214D02*
X12755357Y-9868214D01*
X12855357Y-10082500D01*
X12955357Y-9868214D01*
X12955357Y-10168214D01*
X13226786Y-10168214D02*
X13226786Y-10011072D01*
X13212500Y-9982500D01*
X13183928Y-9968214D01*
X13126786Y-9968214D01*
X13098214Y-9982500D01*
X13226786Y-10153929D02*
X13198214Y-10168214D01*
X13126786Y-10168214D01*
X13098214Y-10153929D01*
X13083928Y-10125357D01*
X13083928Y-10096786D01*
X13098214Y-10068214D01*
X13126786Y-10053929D01*
X13198214Y-10053929D01*
X13226786Y-10039643D01*
X13369643Y-9968214D02*
X13369643Y-10268214D01*
X13369643Y-9982500D02*
X13398214Y-9968214D01*
X13455357Y-9968214D01*
X13483928Y-9982500D01*
X13498214Y-9996786D01*
X13512500Y-10025357D01*
X13512500Y-10111072D01*
X13498214Y-10139643D01*
X13483928Y-10153929D01*
X13455357Y-10168214D01*
X13398214Y-10168214D01*
X13369643Y-10153929D01*
X13641071Y-10139643D02*
X13655357Y-10153929D01*
X13641071Y-10168214D01*
X13626786Y-10153929D01*
X13641071Y-10139643D01*
X13641071Y-10168214D01*
X13641071Y-9982500D02*
X13655357Y-9996786D01*
X13641071Y-10011072D01*
X13626786Y-9996786D01*
X13641071Y-9982500D01*
X13641071Y-10011072D01*
X10997500Y-10512500D02*
X11297500Y-10812500D01*
X11297500Y-10512500D02*
X10997500Y-10812500D01*
X11555357Y-10498214D02*
X11741071Y-10498214D01*
X11641071Y-10612500D01*
X11683928Y-10612500D01*
X11712500Y-10626786D01*
X11726786Y-10641072D01*
X11741071Y-10669643D01*
X11741071Y-10741072D01*
X11726786Y-10769643D01*
X11712500Y-10783929D01*
X11683928Y-10798214D01*
X11598214Y-10798214D01*
X11569643Y-10783929D01*
X11555357Y-10769643D01*
X11869643Y-10769643D02*
X11883928Y-10783929D01*
X11869643Y-10798214D01*
X11855357Y-10783929D01*
X11869643Y-10769643D01*
X11869643Y-10798214D01*
X12069643Y-10498214D02*
X12098214Y-10498214D01*
X12126786Y-10512500D01*
X12141071Y-10526786D01*
X12155357Y-10555357D01*
X12169643Y-10612500D01*
X12169643Y-10683929D01*
X12155357Y-10741072D01*
X12141071Y-10769643D01*
X12126786Y-10783929D01*
X12098214Y-10798214D01*
X12069643Y-10798214D01*
X12041071Y-10783929D01*
X12026786Y-10769643D01*
X12012500Y-10741072D01*
X11998214Y-10683929D01*
X11998214Y-10612500D01*
X12012500Y-10555357D01*
X12026786Y-10526786D01*
X12041071Y-10512500D01*
X12069643Y-10498214D01*
X12355357Y-10498214D02*
X12383928Y-10498214D01*
X12412500Y-10512500D01*
X12426786Y-10526786D01*
X12441071Y-10555357D01*
X12455357Y-10612500D01*
X12455357Y-10683929D01*
X12441071Y-10741072D01*
X12426786Y-10769643D01*
X12412500Y-10783929D01*
X12383928Y-10798214D01*
X12355357Y-10798214D01*
X12326786Y-10783929D01*
X12312500Y-10769643D01*
X12298214Y-10741072D01*
X12283928Y-10683929D01*
X12283928Y-10612500D01*
X12298214Y-10555357D01*
X12312500Y-10526786D01*
X12326786Y-10512500D01*
X12355357Y-10498214D01*
X12583928Y-10798214D02*
X12583928Y-10598214D01*
X12583928Y-10626786D02*
X12598214Y-10612500D01*
X12626786Y-10598214D01*
X12669643Y-10598214D01*
X12698214Y-10612500D01*
X12712500Y-10641072D01*
X12712500Y-10798214D01*
X12712500Y-10641072D02*
X12726786Y-10612500D01*
X12755357Y-10598214D01*
X12798214Y-10598214D01*
X12826786Y-10612500D01*
X12841071Y-10641072D01*
X12841071Y-10798214D01*
X12983928Y-10798214D02*
X12983928Y-10598214D01*
X12983928Y-10626786D02*
X12998214Y-10612500D01*
X13026786Y-10598214D01*
X13069643Y-10598214D01*
X13098214Y-10612500D01*
X13112500Y-10641072D01*
X13112500Y-10798214D01*
X13112500Y-10641072D02*
X13126786Y-10612500D01*
X13155357Y-10598214D01*
X13198214Y-10598214D01*
X13226786Y-10612500D01*
X13241071Y-10641072D01*
X13241071Y-10798214D01*
X13826786Y-10483929D02*
X13569643Y-10869643D01*
X14212500Y-10498214D02*
X14241071Y-10498214D01*
X14269643Y-10512500D01*
X14283928Y-10526786D01*
X14298214Y-10555357D01*
X14312500Y-10612500D01*
X14312500Y-10683929D01*
X14298214Y-10741072D01*
X14283928Y-10769643D01*
X14269643Y-10783929D01*
X14241071Y-10798214D01*
X14212500Y-10798214D01*
X14183928Y-10783929D01*
X14169643Y-10769643D01*
X14155357Y-10741072D01*
X14141071Y-10683929D01*
X14141071Y-10612500D01*
X14155357Y-10555357D01*
X14169643Y-10526786D01*
X14183928Y-10512500D01*
X14212500Y-10498214D01*
X14441071Y-10769643D02*
X14455357Y-10783929D01*
X14441071Y-10798214D01*
X14426786Y-10783929D01*
X14441071Y-10769643D01*
X14441071Y-10798214D01*
X14741071Y-10798214D02*
X14569643Y-10798214D01*
X14655357Y-10798214D02*
X14655357Y-10498214D01*
X14626786Y-10541072D01*
X14598214Y-10569643D01*
X14569643Y-10583929D01*
X15026786Y-10798214D02*
X14855357Y-10798214D01*
X14941071Y-10798214D02*
X14941071Y-10498214D01*
X14912500Y-10541072D01*
X14883928Y-10569643D01*
X14855357Y-10583929D01*
X15198214Y-10626786D02*
X15169643Y-10612500D01*
X15155357Y-10598214D01*
X15141071Y-10569643D01*
X15141071Y-10555357D01*
X15155357Y-10526786D01*
X15169643Y-10512500D01*
X15198214Y-10498214D01*
X15255357Y-10498214D01*
X15283928Y-10512500D01*
X15298214Y-10526786D01*
X15312500Y-10555357D01*
X15312500Y-10569643D01*
X15298214Y-10598214D01*
X15283928Y-10612500D01*
X15255357Y-10626786D01*
X15198214Y-10626786D01*
X15169643Y-10641072D01*
X15155357Y-10655357D01*
X15141071Y-10683929D01*
X15141071Y-10741072D01*
X15155357Y-10769643D01*
X15169643Y-10783929D01*
X15198214Y-10798214D01*
X15255357Y-10798214D01*
X15283928Y-10783929D01*
X15298214Y-10769643D01*
X15312500Y-10741072D01*
X15312500Y-10683929D01*
X15298214Y-10655357D01*
X15283928Y-10641072D01*
X15255357Y-10626786D01*
X15426786Y-10498214D02*
X15426786Y-10555357D01*
X15541071Y-10498214D02*
X15541071Y-10555357D01*
X15983928Y-10912500D02*
X15969643Y-10898214D01*
X15941071Y-10855357D01*
X15926786Y-10826786D01*
X15912500Y-10783929D01*
X15898214Y-10712500D01*
X15898214Y-10655357D01*
X15912500Y-10583929D01*
X15926786Y-10541072D01*
X15941071Y-10512500D01*
X15969643Y-10469643D01*
X15983928Y-10455357D01*
X16226786Y-10598214D02*
X16226786Y-10798214D01*
X16155357Y-10483929D02*
X16083928Y-10698214D01*
X16269643Y-10698214D01*
X16612500Y-10798214D02*
X16612500Y-10498214D01*
X16741071Y-10798214D02*
X16741071Y-10641072D01*
X16726786Y-10612500D01*
X16698214Y-10598214D01*
X16655357Y-10598214D01*
X16626786Y-10612500D01*
X16612500Y-10626786D01*
X16926786Y-10798214D02*
X16898214Y-10783929D01*
X16883928Y-10769643D01*
X16869643Y-10741072D01*
X16869643Y-10655357D01*
X16883928Y-10626786D01*
X16898214Y-10612500D01*
X16926786Y-10598214D01*
X16969643Y-10598214D01*
X16998214Y-10612500D01*
X17012500Y-10626786D01*
X17026786Y-10655357D01*
X17026786Y-10741072D01*
X17012500Y-10769643D01*
X16998214Y-10783929D01*
X16969643Y-10798214D01*
X16926786Y-10798214D01*
X17198214Y-10798214D02*
X17169643Y-10783929D01*
X17155357Y-10755357D01*
X17155357Y-10498214D01*
X17426786Y-10783929D02*
X17398214Y-10798214D01*
X17341071Y-10798214D01*
X17312500Y-10783929D01*
X17298214Y-10755357D01*
X17298214Y-10641072D01*
X17312500Y-10612500D01*
X17341071Y-10598214D01*
X17398214Y-10598214D01*
X17426786Y-10612500D01*
X17441071Y-10641072D01*
X17441071Y-10669643D01*
X17298214Y-10698214D01*
X17555357Y-10783929D02*
X17583928Y-10798214D01*
X17641071Y-10798214D01*
X17669643Y-10783929D01*
X17683928Y-10755357D01*
X17683928Y-10741072D01*
X17669643Y-10712500D01*
X17641071Y-10698214D01*
X17598214Y-10698214D01*
X17569643Y-10683929D01*
X17555357Y-10655357D01*
X17555357Y-10641072D01*
X17569643Y-10612500D01*
X17598214Y-10598214D01*
X17641071Y-10598214D01*
X17669643Y-10612500D01*
X17783928Y-10912500D02*
X17798214Y-10898214D01*
X17826786Y-10855357D01*
X17841071Y-10826786D01*
X17855357Y-10783929D01*
X17869643Y-10712500D01*
X17869643Y-10655357D01*
X17855357Y-10583929D01*
X17841071Y-10541072D01*
X17826786Y-10512500D01*
X17798214Y-10469643D01*
X17783928Y-10455357D01*
X18326786Y-10912500D02*
X18312500Y-10898214D01*
X18283928Y-10855357D01*
X18269643Y-10826786D01*
X18255357Y-10783929D01*
X18241071Y-10712500D01*
X18241071Y-10655357D01*
X18255357Y-10583929D01*
X18269643Y-10541072D01*
X18283928Y-10512500D01*
X18312500Y-10469643D01*
X18326786Y-10455357D01*
X18441071Y-10598214D02*
X18441071Y-10798214D01*
X18441071Y-10626786D02*
X18455357Y-10612500D01*
X18483928Y-10598214D01*
X18526786Y-10598214D01*
X18555357Y-10612500D01*
X18569643Y-10641072D01*
X18569643Y-10798214D01*
X18755357Y-10798214D02*
X18726786Y-10783929D01*
X18712500Y-10769643D01*
X18698214Y-10741072D01*
X18698214Y-10655357D01*
X18712500Y-10626786D01*
X18726786Y-10612500D01*
X18755357Y-10598214D01*
X18798214Y-10598214D01*
X18826786Y-10612500D01*
X18841071Y-10626786D01*
X18855357Y-10655357D01*
X18855357Y-10741072D01*
X18841071Y-10769643D01*
X18826786Y-10783929D01*
X18798214Y-10798214D01*
X18755357Y-10798214D01*
X18941071Y-10598214D02*
X19055357Y-10598214D01*
X18983928Y-10498214D02*
X18983928Y-10755357D01*
X18998214Y-10783929D01*
X19026786Y-10798214D01*
X19055357Y-10798214D01*
X19383928Y-10598214D02*
X19383928Y-10898214D01*
X19383928Y-10612500D02*
X19412500Y-10598214D01*
X19469643Y-10598214D01*
X19498214Y-10612500D01*
X19512500Y-10626786D01*
X19526786Y-10655357D01*
X19526786Y-10741072D01*
X19512500Y-10769643D01*
X19498214Y-10783929D01*
X19469643Y-10798214D01*
X19412500Y-10798214D01*
X19383928Y-10783929D01*
X19698214Y-10798214D02*
X19669643Y-10783929D01*
X19655357Y-10755357D01*
X19655357Y-10498214D01*
X19941071Y-10798214D02*
X19941071Y-10641072D01*
X19926786Y-10612500D01*
X19898214Y-10598214D01*
X19841071Y-10598214D01*
X19812500Y-10612500D01*
X19941071Y-10783929D02*
X19912500Y-10798214D01*
X19841071Y-10798214D01*
X19812500Y-10783929D01*
X19798214Y-10755357D01*
X19798214Y-10726786D01*
X19812500Y-10698214D01*
X19841071Y-10683929D01*
X19912500Y-10683929D01*
X19941071Y-10669643D01*
X20041071Y-10598214D02*
X20155357Y-10598214D01*
X20083928Y-10498214D02*
X20083928Y-10755357D01*
X20098214Y-10783929D01*
X20126786Y-10798214D01*
X20155357Y-10798214D01*
X20369643Y-10783929D02*
X20341071Y-10798214D01*
X20283928Y-10798214D01*
X20255357Y-10783929D01*
X20241071Y-10755357D01*
X20241071Y-10641072D01*
X20255357Y-10612500D01*
X20283928Y-10598214D01*
X20341071Y-10598214D01*
X20369643Y-10612500D01*
X20383928Y-10641072D01*
X20383928Y-10669643D01*
X20241071Y-10698214D01*
X20641071Y-10798214D02*
X20641071Y-10498214D01*
X20641071Y-10783929D02*
X20612500Y-10798214D01*
X20555357Y-10798214D01*
X20526786Y-10783929D01*
X20512500Y-10769643D01*
X20498214Y-10741072D01*
X20498214Y-10655357D01*
X20512500Y-10626786D01*
X20526786Y-10612500D01*
X20555357Y-10598214D01*
X20612500Y-10598214D01*
X20641071Y-10612500D01*
X20755357Y-10912500D02*
X20769643Y-10898214D01*
X20798214Y-10855357D01*
X20812500Y-10826786D01*
X20826786Y-10783929D01*
X20841071Y-10712500D01*
X20841071Y-10655357D01*
X20826786Y-10583929D01*
X20812500Y-10541072D01*
X20798214Y-10512500D01*
X20769643Y-10469643D01*
X20755357Y-10455357D01*
M02*
