M48
; DRILL file {KiCad (5.1.6)-1} date 07/17/21 16:45:10
; FORMAT={-:-/ absolute / metric / decimal}
; #@! TF.CreationDate,2021-07-17T16:45:10+03:00
; #@! TF.GenerationSoftware,Kicad,Pcbnew,(5.1.6)-1
; #@! TF.FileFunction,Plated,1,2,PTH
FMAT,2
METRIC
T1C1.000
%
G90
G05
T1
X157.0Y-85.0
X157.0Y-87.54
X157.0Y-90.08
X157.0Y-92.62
X125.14Y-63.0
X127.68Y-63.0
X130.22Y-63.0
X132.76Y-63.0
X135.3Y-63.0
X137.84Y-63.0
X140.38Y-63.0
X142.92Y-63.0
X145.46Y-63.0
X148.0Y-63.0
X156.0Y-67.0
X158.54Y-67.0
X161.08Y-67.0
X163.62Y-67.0
X166.16Y-67.0
X168.7Y-67.0
X125.14Y-86.0
X127.68Y-86.0
X130.22Y-86.0
X132.76Y-86.0
X135.3Y-86.0
X137.84Y-86.0
X140.38Y-86.0
X142.92Y-86.0
X145.46Y-86.0
X148.0Y-86.0
X180.5Y-59.42
X180.5Y-61.96
X180.5Y-64.5
X180.5Y-67.04
X180.5Y-69.58
T0
M30
