%FSLAX45Y45*%
G04 Gerber Fmt 4.5, Leading zero omitted, Abs format (unit mm)*
G04 Created by KiCad (PCBNEW (5.1.6)-1) date 2021-07-17 16:45:11*
%MOMM*%
%LPD*%
G01*
G04 APERTURE LIST*
%TA.AperFunction,Profile*%
%ADD10C,0.050000*%
%TD*%
%ADD11C,0.200000*%
%ADD12C,0.300000*%
G04 APERTURE END LIST*
D10*
X11300000Y-5150000D02*
X20050000Y-5150000D01*
X11300000Y-9700000D02*
X11300000Y-5150000D01*
X20050000Y-9700000D02*
X11300000Y-9700000D01*
X20050000Y-5150000D02*
X20050000Y-9700000D01*
D11*
X15650000Y-8450000D02*
X15750000Y-8550000D01*
X15750000Y-8450000D02*
X15650000Y-8550000D01*
X15650000Y-8704000D02*
X15750000Y-8804000D01*
X15750000Y-8704000D02*
X15650000Y-8804000D01*
X15650000Y-8958000D02*
X15750000Y-9058000D01*
X15750000Y-8958000D02*
X15650000Y-9058000D01*
X15650000Y-9212000D02*
X15750000Y-9312000D01*
X15750000Y-9212000D02*
X15650000Y-9312000D01*
X12464000Y-6250000D02*
X12564000Y-6350000D01*
X12564000Y-6250000D02*
X12464000Y-6350000D01*
X12718000Y-6250000D02*
X12818000Y-6350000D01*
X12818000Y-6250000D02*
X12718000Y-6350000D01*
X12972000Y-6250000D02*
X13072000Y-6350000D01*
X13072000Y-6250000D02*
X12972000Y-6350000D01*
X13226000Y-6250000D02*
X13326000Y-6350000D01*
X13326000Y-6250000D02*
X13226000Y-6350000D01*
X13480000Y-6250000D02*
X13580000Y-6350000D01*
X13580000Y-6250000D02*
X13480000Y-6350000D01*
X13734000Y-6250000D02*
X13834000Y-6350000D01*
X13834000Y-6250000D02*
X13734000Y-6350000D01*
X13988000Y-6250000D02*
X14088000Y-6350000D01*
X14088000Y-6250000D02*
X13988000Y-6350000D01*
X14242000Y-6250000D02*
X14342000Y-6350000D01*
X14342000Y-6250000D02*
X14242000Y-6350000D01*
X14496000Y-6250000D02*
X14596000Y-6350000D01*
X14596000Y-6250000D02*
X14496000Y-6350000D01*
X14750000Y-6250000D02*
X14850000Y-6350000D01*
X14850000Y-6250000D02*
X14750000Y-6350000D01*
X15550000Y-6650000D02*
X15650000Y-6750000D01*
X15650000Y-6650000D02*
X15550000Y-6750000D01*
X15804000Y-6650000D02*
X15904000Y-6750000D01*
X15904000Y-6650000D02*
X15804000Y-6750000D01*
X16058000Y-6650000D02*
X16158000Y-6750000D01*
X16158000Y-6650000D02*
X16058000Y-6750000D01*
X16312000Y-6650000D02*
X16412000Y-6750000D01*
X16412000Y-6650000D02*
X16312000Y-6750000D01*
X16566000Y-6650000D02*
X16666000Y-6750000D01*
X16666000Y-6650000D02*
X16566000Y-6750000D01*
X16820000Y-6650000D02*
X16920000Y-6750000D01*
X16920000Y-6650000D02*
X16820000Y-6750000D01*
X12464000Y-8550000D02*
X12564000Y-8650000D01*
X12564000Y-8550000D02*
X12464000Y-8650000D01*
X12718000Y-8550000D02*
X12818000Y-8650000D01*
X12818000Y-8550000D02*
X12718000Y-8650000D01*
X12972000Y-8550000D02*
X13072000Y-8650000D01*
X13072000Y-8550000D02*
X12972000Y-8650000D01*
X13226000Y-8550000D02*
X13326000Y-8650000D01*
X13326000Y-8550000D02*
X13226000Y-8650000D01*
X13480000Y-8550000D02*
X13580000Y-8650000D01*
X13580000Y-8550000D02*
X13480000Y-8650000D01*
X13734000Y-8550000D02*
X13834000Y-8650000D01*
X13834000Y-8550000D02*
X13734000Y-8650000D01*
X13988000Y-8550000D02*
X14088000Y-8650000D01*
X14088000Y-8550000D02*
X13988000Y-8650000D01*
X14242000Y-8550000D02*
X14342000Y-8650000D01*
X14342000Y-8550000D02*
X14242000Y-8650000D01*
X14496000Y-8550000D02*
X14596000Y-8650000D01*
X14596000Y-8550000D02*
X14496000Y-8650000D01*
X14750000Y-8550000D02*
X14850000Y-8650000D01*
X14850000Y-8550000D02*
X14750000Y-8650000D01*
X18000000Y-5892000D02*
X18100000Y-5992000D01*
X18100000Y-5892000D02*
X18000000Y-5992000D01*
X18000000Y-6146000D02*
X18100000Y-6246000D01*
X18100000Y-6146000D02*
X18000000Y-6246000D01*
X18000000Y-6400000D02*
X18100000Y-6500000D01*
X18100000Y-6400000D02*
X18000000Y-6500000D01*
X18000000Y-6654000D02*
X18100000Y-6754000D01*
X18100000Y-6654000D02*
X18000000Y-6754000D01*
X18000000Y-6908000D02*
X18100000Y-7008000D01*
X18100000Y-6908000D02*
X18000000Y-7008000D01*
D12*
X11583928Y-10168214D02*
X11583928Y-9868214D01*
X11655357Y-9868214D01*
X11698214Y-9882500D01*
X11726786Y-9911072D01*
X11741071Y-9939643D01*
X11755357Y-9996786D01*
X11755357Y-10039643D01*
X11741071Y-10096786D01*
X11726786Y-10125357D01*
X11698214Y-10153929D01*
X11655357Y-10168214D01*
X11583928Y-10168214D01*
X11883928Y-10168214D02*
X11883928Y-9968214D01*
X11883928Y-10025357D02*
X11898214Y-9996786D01*
X11912500Y-9982500D01*
X11941071Y-9968214D01*
X11969643Y-9968214D01*
X12069643Y-10168214D02*
X12069643Y-9968214D01*
X12069643Y-9868214D02*
X12055357Y-9882500D01*
X12069643Y-9896786D01*
X12083928Y-9882500D01*
X12069643Y-9868214D01*
X12069643Y-9896786D01*
X12255357Y-10168214D02*
X12226786Y-10153929D01*
X12212500Y-10125357D01*
X12212500Y-9868214D01*
X12412500Y-10168214D02*
X12383928Y-10153929D01*
X12369643Y-10125357D01*
X12369643Y-9868214D01*
X12755357Y-10168214D02*
X12755357Y-9868214D01*
X12855357Y-10082500D01*
X12955357Y-9868214D01*
X12955357Y-10168214D01*
X13226786Y-10168214D02*
X13226786Y-10011072D01*
X13212500Y-9982500D01*
X13183928Y-9968214D01*
X13126786Y-9968214D01*
X13098214Y-9982500D01*
X13226786Y-10153929D02*
X13198214Y-10168214D01*
X13126786Y-10168214D01*
X13098214Y-10153929D01*
X13083928Y-10125357D01*
X13083928Y-10096786D01*
X13098214Y-10068214D01*
X13126786Y-10053929D01*
X13198214Y-10053929D01*
X13226786Y-10039643D01*
X13369643Y-9968214D02*
X13369643Y-10268214D01*
X13369643Y-9982500D02*
X13398214Y-9968214D01*
X13455357Y-9968214D01*
X13483928Y-9982500D01*
X13498214Y-9996786D01*
X13512500Y-10025357D01*
X13512500Y-10111072D01*
X13498214Y-10139643D01*
X13483928Y-10153929D01*
X13455357Y-10168214D01*
X13398214Y-10168214D01*
X13369643Y-10153929D01*
X13641071Y-10139643D02*
X13655357Y-10153929D01*
X13641071Y-10168214D01*
X13626786Y-10153929D01*
X13641071Y-10139643D01*
X13641071Y-10168214D01*
X13641071Y-9982500D02*
X13655357Y-9996786D01*
X13641071Y-10011072D01*
X13626786Y-9996786D01*
X13641071Y-9982500D01*
X13641071Y-10011072D01*
X11197500Y-10612500D02*
X11297500Y-10712500D01*
X11297500Y-10612500D02*
X11197500Y-10712500D01*
X11741071Y-10798214D02*
X11569643Y-10798214D01*
X11655357Y-10798214D02*
X11655357Y-10498214D01*
X11626786Y-10541072D01*
X11598214Y-10569643D01*
X11569643Y-10583929D01*
X11869643Y-10769643D02*
X11883928Y-10783929D01*
X11869643Y-10798214D01*
X11855357Y-10783929D01*
X11869643Y-10769643D01*
X11869643Y-10798214D01*
X12069643Y-10498214D02*
X12098214Y-10498214D01*
X12126786Y-10512500D01*
X12141071Y-10526786D01*
X12155357Y-10555357D01*
X12169643Y-10612500D01*
X12169643Y-10683929D01*
X12155357Y-10741072D01*
X12141071Y-10769643D01*
X12126786Y-10783929D01*
X12098214Y-10798214D01*
X12069643Y-10798214D01*
X12041071Y-10783929D01*
X12026786Y-10769643D01*
X12012500Y-10741072D01*
X11998214Y-10683929D01*
X11998214Y-10612500D01*
X12012500Y-10555357D01*
X12026786Y-10526786D01*
X12041071Y-10512500D01*
X12069643Y-10498214D01*
X12355357Y-10498214D02*
X12383928Y-10498214D01*
X12412500Y-10512500D01*
X12426786Y-10526786D01*
X12441071Y-10555357D01*
X12455357Y-10612500D01*
X12455357Y-10683929D01*
X12441071Y-10741072D01*
X12426786Y-10769643D01*
X12412500Y-10783929D01*
X12383928Y-10798214D01*
X12355357Y-10798214D01*
X12326786Y-10783929D01*
X12312500Y-10769643D01*
X12298214Y-10741072D01*
X12283928Y-10683929D01*
X12283928Y-10612500D01*
X12298214Y-10555357D01*
X12312500Y-10526786D01*
X12326786Y-10512500D01*
X12355357Y-10498214D01*
X12583928Y-10798214D02*
X12583928Y-10598214D01*
X12583928Y-10626786D02*
X12598214Y-10612500D01*
X12626786Y-10598214D01*
X12669643Y-10598214D01*
X12698214Y-10612500D01*
X12712500Y-10641072D01*
X12712500Y-10798214D01*
X12712500Y-10641072D02*
X12726786Y-10612500D01*
X12755357Y-10598214D01*
X12798214Y-10598214D01*
X12826786Y-10612500D01*
X12841071Y-10641072D01*
X12841071Y-10798214D01*
X12983928Y-10798214D02*
X12983928Y-10598214D01*
X12983928Y-10626786D02*
X12998214Y-10612500D01*
X13026786Y-10598214D01*
X13069643Y-10598214D01*
X13098214Y-10612500D01*
X13112500Y-10641072D01*
X13112500Y-10798214D01*
X13112500Y-10641072D02*
X13126786Y-10612500D01*
X13155357Y-10598214D01*
X13198214Y-10598214D01*
X13226786Y-10612500D01*
X13241071Y-10641072D01*
X13241071Y-10798214D01*
X13826786Y-10483929D02*
X13569643Y-10869643D01*
X14212500Y-10498214D02*
X14241071Y-10498214D01*
X14269643Y-10512500D01*
X14283928Y-10526786D01*
X14298214Y-10555357D01*
X14312500Y-10612500D01*
X14312500Y-10683929D01*
X14298214Y-10741072D01*
X14283928Y-10769643D01*
X14269643Y-10783929D01*
X14241071Y-10798214D01*
X14212500Y-10798214D01*
X14183928Y-10783929D01*
X14169643Y-10769643D01*
X14155357Y-10741072D01*
X14141071Y-10683929D01*
X14141071Y-10612500D01*
X14155357Y-10555357D01*
X14169643Y-10526786D01*
X14183928Y-10512500D01*
X14212500Y-10498214D01*
X14441071Y-10769643D02*
X14455357Y-10783929D01*
X14441071Y-10798214D01*
X14426786Y-10783929D01*
X14441071Y-10769643D01*
X14441071Y-10798214D01*
X14641071Y-10498214D02*
X14669643Y-10498214D01*
X14698214Y-10512500D01*
X14712500Y-10526786D01*
X14726786Y-10555357D01*
X14741071Y-10612500D01*
X14741071Y-10683929D01*
X14726786Y-10741072D01*
X14712500Y-10769643D01*
X14698214Y-10783929D01*
X14669643Y-10798214D01*
X14641071Y-10798214D01*
X14612500Y-10783929D01*
X14598214Y-10769643D01*
X14583928Y-10741072D01*
X14569643Y-10683929D01*
X14569643Y-10612500D01*
X14583928Y-10555357D01*
X14598214Y-10526786D01*
X14612500Y-10512500D01*
X14641071Y-10498214D01*
X14841071Y-10498214D02*
X15026786Y-10498214D01*
X14926786Y-10612500D01*
X14969643Y-10612500D01*
X14998214Y-10626786D01*
X15012500Y-10641072D01*
X15026786Y-10669643D01*
X15026786Y-10741072D01*
X15012500Y-10769643D01*
X14998214Y-10783929D01*
X14969643Y-10798214D01*
X14883928Y-10798214D01*
X14855357Y-10783929D01*
X14841071Y-10769643D01*
X15169643Y-10798214D02*
X15226786Y-10798214D01*
X15255357Y-10783929D01*
X15269643Y-10769643D01*
X15298214Y-10726786D01*
X15312500Y-10669643D01*
X15312500Y-10555357D01*
X15298214Y-10526786D01*
X15283928Y-10512500D01*
X15255357Y-10498214D01*
X15198214Y-10498214D01*
X15169643Y-10512500D01*
X15155357Y-10526786D01*
X15141071Y-10555357D01*
X15141071Y-10626786D01*
X15155357Y-10655357D01*
X15169643Y-10669643D01*
X15198214Y-10683929D01*
X15255357Y-10683929D01*
X15283928Y-10669643D01*
X15298214Y-10655357D01*
X15312500Y-10626786D01*
X15426786Y-10498214D02*
X15426786Y-10555357D01*
X15541071Y-10498214D02*
X15541071Y-10555357D01*
X15983928Y-10912500D02*
X15969643Y-10898214D01*
X15941071Y-10855357D01*
X15926786Y-10826786D01*
X15912500Y-10783929D01*
X15898214Y-10712500D01*
X15898214Y-10655357D01*
X15912500Y-10583929D01*
X15926786Y-10541072D01*
X15941071Y-10512500D01*
X15969643Y-10469643D01*
X15983928Y-10455357D01*
X16069643Y-10498214D02*
X16255357Y-10498214D01*
X16155357Y-10612500D01*
X16198214Y-10612500D01*
X16226786Y-10626786D01*
X16241071Y-10641072D01*
X16255357Y-10669643D01*
X16255357Y-10741072D01*
X16241071Y-10769643D01*
X16226786Y-10783929D01*
X16198214Y-10798214D01*
X16112500Y-10798214D01*
X16083928Y-10783929D01*
X16069643Y-10769643D01*
X16526786Y-10498214D02*
X16383928Y-10498214D01*
X16369643Y-10641072D01*
X16383928Y-10626786D01*
X16412500Y-10612500D01*
X16483928Y-10612500D01*
X16512500Y-10626786D01*
X16526786Y-10641072D01*
X16541071Y-10669643D01*
X16541071Y-10741072D01*
X16526786Y-10769643D01*
X16512500Y-10783929D01*
X16483928Y-10798214D01*
X16412500Y-10798214D01*
X16383928Y-10783929D01*
X16369643Y-10769643D01*
X16898214Y-10798214D02*
X16898214Y-10498214D01*
X17026786Y-10798214D02*
X17026786Y-10641072D01*
X17012500Y-10612500D01*
X16983928Y-10598214D01*
X16941071Y-10598214D01*
X16912500Y-10612500D01*
X16898214Y-10626786D01*
X17212500Y-10798214D02*
X17183928Y-10783929D01*
X17169643Y-10769643D01*
X17155357Y-10741072D01*
X17155357Y-10655357D01*
X17169643Y-10626786D01*
X17183928Y-10612500D01*
X17212500Y-10598214D01*
X17255357Y-10598214D01*
X17283928Y-10612500D01*
X17298214Y-10626786D01*
X17312500Y-10655357D01*
X17312500Y-10741072D01*
X17298214Y-10769643D01*
X17283928Y-10783929D01*
X17255357Y-10798214D01*
X17212500Y-10798214D01*
X17483928Y-10798214D02*
X17455357Y-10783929D01*
X17441071Y-10755357D01*
X17441071Y-10498214D01*
X17712500Y-10783929D02*
X17683928Y-10798214D01*
X17626786Y-10798214D01*
X17598214Y-10783929D01*
X17583928Y-10755357D01*
X17583928Y-10641072D01*
X17598214Y-10612500D01*
X17626786Y-10598214D01*
X17683928Y-10598214D01*
X17712500Y-10612500D01*
X17726786Y-10641072D01*
X17726786Y-10669643D01*
X17583928Y-10698214D01*
X17841071Y-10783929D02*
X17869643Y-10798214D01*
X17926786Y-10798214D01*
X17955357Y-10783929D01*
X17969643Y-10755357D01*
X17969643Y-10741072D01*
X17955357Y-10712500D01*
X17926786Y-10698214D01*
X17883928Y-10698214D01*
X17855357Y-10683929D01*
X17841071Y-10655357D01*
X17841071Y-10641072D01*
X17855357Y-10612500D01*
X17883928Y-10598214D01*
X17926786Y-10598214D01*
X17955357Y-10612500D01*
X18069643Y-10912500D02*
X18083928Y-10898214D01*
X18112500Y-10855357D01*
X18126786Y-10826786D01*
X18141071Y-10783929D01*
X18155357Y-10712500D01*
X18155357Y-10655357D01*
X18141071Y-10583929D01*
X18126786Y-10541072D01*
X18112500Y-10512500D01*
X18083928Y-10469643D01*
X18069643Y-10455357D01*
M02*
