%TF.GenerationSoftware,KiCad,Pcbnew,(5.1.6)-1*%
%TF.CreationDate,2021-07-17T16:45:05+03:00*%
%TF.ProjectId,gotek_ctrl,676f7465-6b5f-4637-9472-6c2e6b696361,rev?*%
%TF.SameCoordinates,Original*%
%TF.FileFunction,Legend,Top*%
%TF.FilePolarity,Positive*%
%FSLAX46Y46*%
G04 Gerber Fmt 4.6, Leading zero omitted, Abs format (unit mm)*
G04 Created by KiCad (PCBNEW (5.1.6)-1) date 2021-07-17 16:45:05*
%MOMM*%
%LPD*%
G01*
G04 APERTURE LIST*
%ADD10C,0.150000*%
%ADD11C,0.120000*%
G04 APERTURE END LIST*
D10*
X124595238Y-53127380D02*
X124833333Y-54127380D01*
X125023809Y-53413095D01*
X125214285Y-54127380D01*
X125452380Y-53127380D01*
X125833333Y-54127380D02*
X125833333Y-53460714D01*
X125833333Y-53127380D02*
X125785714Y-53175000D01*
X125833333Y-53222619D01*
X125880952Y-53175000D01*
X125833333Y-53127380D01*
X125833333Y-53222619D01*
X126833333Y-53175000D02*
X126738095Y-53127380D01*
X126595238Y-53127380D01*
X126452380Y-53175000D01*
X126357142Y-53270238D01*
X126309523Y-53365476D01*
X126261904Y-53555952D01*
X126261904Y-53698809D01*
X126309523Y-53889285D01*
X126357142Y-53984523D01*
X126452380Y-54079761D01*
X126595238Y-54127380D01*
X126690476Y-54127380D01*
X126833333Y-54079761D01*
X126880952Y-54032142D01*
X126880952Y-53698809D01*
X126690476Y-53698809D01*
X127452380Y-54127380D02*
X127357142Y-54079761D01*
X127309523Y-54032142D01*
X127261904Y-53936904D01*
X127261904Y-53651190D01*
X127309523Y-53555952D01*
X127357142Y-53508333D01*
X127452380Y-53460714D01*
X127595238Y-53460714D01*
X127690476Y-53508333D01*
X127738095Y-53555952D01*
X127785714Y-53651190D01*
X127785714Y-53936904D01*
X127738095Y-54032142D01*
X127690476Y-54079761D01*
X127595238Y-54127380D01*
X127452380Y-54127380D01*
X128071428Y-53460714D02*
X128452380Y-53460714D01*
X128214285Y-53127380D02*
X128214285Y-53984523D01*
X128261904Y-54079761D01*
X128357142Y-54127380D01*
X128452380Y-54127380D01*
X124357142Y-55110714D02*
X124595238Y-55777380D01*
X124833333Y-55110714D01*
X125738095Y-55777380D02*
X125166666Y-55777380D01*
X125452380Y-55777380D02*
X125452380Y-54777380D01*
X125357142Y-54920238D01*
X125261904Y-55015476D01*
X125166666Y-55063095D01*
X126166666Y-55682142D02*
X126214285Y-55729761D01*
X126166666Y-55777380D01*
X126119047Y-55729761D01*
X126166666Y-55682142D01*
X126166666Y-55777380D01*
X126833333Y-54777380D02*
X126928571Y-54777380D01*
X127023809Y-54825000D01*
X127071428Y-54872619D01*
X127119047Y-54967857D01*
X127166666Y-55158333D01*
X127166666Y-55396428D01*
X127119047Y-55586904D01*
X127071428Y-55682142D01*
X127023809Y-55729761D01*
X126928571Y-55777380D01*
X126833333Y-55777380D01*
X126738095Y-55729761D01*
X126690476Y-55682142D01*
X126642857Y-55586904D01*
X126595238Y-55396428D01*
X126595238Y-55158333D01*
X126642857Y-54967857D01*
X126690476Y-54872619D01*
X126738095Y-54825000D01*
X126833333Y-54777380D01*
X127595238Y-55682142D02*
X127642857Y-55729761D01*
X127595238Y-55777380D01*
X127547619Y-55729761D01*
X127595238Y-55682142D01*
X127595238Y-55777380D01*
X128261904Y-54777380D02*
X128357142Y-54777380D01*
X128452380Y-54825000D01*
X128500000Y-54872619D01*
X128547619Y-54967857D01*
X128595238Y-55158333D01*
X128595238Y-55396428D01*
X128547619Y-55586904D01*
X128500000Y-55682142D01*
X128452380Y-55729761D01*
X128357142Y-55777380D01*
X128261904Y-55777380D01*
X128166666Y-55729761D01*
X128119047Y-55682142D01*
X128071428Y-55586904D01*
X128023809Y-55396428D01*
X128023809Y-55158333D01*
X128071428Y-54967857D01*
X128119047Y-54872619D01*
X128166666Y-54825000D01*
X128261904Y-54777380D01*
D11*
X199715375Y-64215374D02*
G75*
G03*
X199715375Y-64215374I-11715375J0D01*
G01*
D10*
X156738095Y-58234523D02*
X157023809Y-58329761D01*
X157500000Y-58329761D01*
X157690476Y-58234523D01*
X157785714Y-58139285D01*
X157880952Y-57948809D01*
X157880952Y-57758333D01*
X157785714Y-57567857D01*
X157690476Y-57472619D01*
X157500000Y-57377380D01*
X157119047Y-57282142D01*
X156928571Y-57186904D01*
X156833333Y-57091666D01*
X156738095Y-56901190D01*
X156738095Y-56710714D01*
X156833333Y-56520238D01*
X156928571Y-56425000D01*
X157119047Y-56329761D01*
X157595238Y-56329761D01*
X157880952Y-56425000D01*
X158738095Y-58329761D02*
X158738095Y-56329761D01*
X159214285Y-56329761D01*
X159500000Y-56425000D01*
X159690476Y-56615476D01*
X159785714Y-56805952D01*
X159880952Y-57186904D01*
X159880952Y-57472619D01*
X159785714Y-57853571D01*
X159690476Y-58044047D01*
X159500000Y-58234523D01*
X159214285Y-58329761D01*
X158738095Y-58329761D01*
X163404761Y-58139285D02*
X163309523Y-58234523D01*
X163023809Y-58329761D01*
X162833333Y-58329761D01*
X162547619Y-58234523D01*
X162357142Y-58044047D01*
X162261904Y-57853571D01*
X162166666Y-57472619D01*
X162166666Y-57186904D01*
X162261904Y-56805952D01*
X162357142Y-56615476D01*
X162547619Y-56425000D01*
X162833333Y-56329761D01*
X163023809Y-56329761D01*
X163309523Y-56425000D01*
X163404761Y-56520238D01*
X165119047Y-58329761D02*
X165119047Y-57282142D01*
X165023809Y-57091666D01*
X164833333Y-56996428D01*
X164452380Y-56996428D01*
X164261904Y-57091666D01*
X165119047Y-58234523D02*
X164928571Y-58329761D01*
X164452380Y-58329761D01*
X164261904Y-58234523D01*
X164166666Y-58044047D01*
X164166666Y-57853571D01*
X164261904Y-57663095D01*
X164452380Y-57567857D01*
X164928571Y-57567857D01*
X165119047Y-57472619D01*
X166071428Y-58329761D02*
X166071428Y-56996428D01*
X166071428Y-57377380D02*
X166166666Y-57186904D01*
X166261904Y-57091666D01*
X166452380Y-56996428D01*
X166642857Y-56996428D01*
X168166666Y-58329761D02*
X168166666Y-56329761D01*
X168166666Y-58234523D02*
X167976190Y-58329761D01*
X167595238Y-58329761D01*
X167404761Y-58234523D01*
X167309523Y-58139285D01*
X167214285Y-57948809D01*
X167214285Y-57377380D01*
X167309523Y-57186904D01*
X167404761Y-57091666D01*
X167595238Y-56996428D01*
X167976190Y-56996428D01*
X168166666Y-57091666D01*
X157547619Y-61479761D02*
X157547619Y-60146428D01*
X157547619Y-60336904D02*
X157642857Y-60241666D01*
X157833333Y-60146428D01*
X158119047Y-60146428D01*
X158309523Y-60241666D01*
X158404761Y-60432142D01*
X158404761Y-61479761D01*
X158404761Y-60432142D02*
X158500000Y-60241666D01*
X158690476Y-60146428D01*
X158976190Y-60146428D01*
X159166666Y-60241666D01*
X159261904Y-60432142D01*
X159261904Y-61479761D01*
X160500000Y-61479761D02*
X160309523Y-61384523D01*
X160214285Y-61289285D01*
X160119047Y-61098809D01*
X160119047Y-60527380D01*
X160214285Y-60336904D01*
X160309523Y-60241666D01*
X160500000Y-60146428D01*
X160785714Y-60146428D01*
X160976190Y-60241666D01*
X161071428Y-60336904D01*
X161166666Y-60527380D01*
X161166666Y-61098809D01*
X161071428Y-61289285D01*
X160976190Y-61384523D01*
X160785714Y-61479761D01*
X160500000Y-61479761D01*
X162880952Y-61479761D02*
X162880952Y-59479761D01*
X162880952Y-61384523D02*
X162690476Y-61479761D01*
X162309523Y-61479761D01*
X162119047Y-61384523D01*
X162023809Y-61289285D01*
X161928571Y-61098809D01*
X161928571Y-60527380D01*
X162023809Y-60336904D01*
X162119047Y-60241666D01*
X162309523Y-60146428D01*
X162690476Y-60146428D01*
X162880952Y-60241666D01*
X164690476Y-60146428D02*
X164690476Y-61479761D01*
X163833333Y-60146428D02*
X163833333Y-61194047D01*
X163928571Y-61384523D01*
X164119047Y-61479761D01*
X164404761Y-61479761D01*
X164595238Y-61384523D01*
X164690476Y-61289285D01*
X165928571Y-61479761D02*
X165738095Y-61384523D01*
X165642857Y-61194047D01*
X165642857Y-59479761D01*
X167452380Y-61384523D02*
X167261904Y-61479761D01*
X166880952Y-61479761D01*
X166690476Y-61384523D01*
X166595238Y-61194047D01*
X166595238Y-60432142D01*
X166690476Y-60241666D01*
X166880952Y-60146428D01*
X167261904Y-60146428D01*
X167452380Y-60241666D01*
X167547619Y-60432142D01*
X167547619Y-60622619D01*
X166595238Y-60813095D01*
D11*
X154500000Y-69000000D02*
X154500000Y-52000000D01*
X171500000Y-69000000D02*
X154500000Y-69000000D01*
X171500000Y-52000000D02*
X171500000Y-69000000D01*
X154500000Y-52000000D02*
X171500000Y-52000000D01*
D10*
X185261904Y-64254761D02*
X185261904Y-62254761D01*
X186404761Y-64254761D02*
X185547619Y-63111904D01*
X186404761Y-62254761D02*
X185261904Y-63397619D01*
X187642857Y-63302380D02*
X187642857Y-64254761D01*
X186976190Y-62254761D02*
X187642857Y-63302380D01*
X188309523Y-62254761D01*
X189357142Y-62254761D02*
X189547619Y-62254761D01*
X189738095Y-62350000D01*
X189833333Y-62445238D01*
X189928571Y-62635714D01*
X190023809Y-63016666D01*
X190023809Y-63492857D01*
X189928571Y-63873809D01*
X189833333Y-64064285D01*
X189738095Y-64159523D01*
X189547619Y-64254761D01*
X189357142Y-64254761D01*
X189166666Y-64159523D01*
X189071428Y-64064285D01*
X188976190Y-63873809D01*
X188880952Y-63492857D01*
X188880952Y-63016666D01*
X188976190Y-62635714D01*
X189071428Y-62445238D01*
X189166666Y-62350000D01*
X189357142Y-62254761D01*
X191738095Y-62921428D02*
X191738095Y-64254761D01*
X191261904Y-62159523D02*
X190785714Y-63588095D01*
X192023809Y-63588095D01*
X193166666Y-62254761D02*
X193357142Y-62254761D01*
X193547619Y-62350000D01*
X193642857Y-62445238D01*
X193738095Y-62635714D01*
X193833333Y-63016666D01*
X193833333Y-63492857D01*
X193738095Y-63873809D01*
X193642857Y-64064285D01*
X193547619Y-64159523D01*
X193357142Y-64254761D01*
X193166666Y-64254761D01*
X192976190Y-64159523D01*
X192880952Y-64064285D01*
X192785714Y-63873809D01*
X192690476Y-63492857D01*
X192690476Y-63016666D01*
X192785714Y-62635714D01*
X192880952Y-62445238D01*
X192976190Y-62350000D01*
X193166666Y-62254761D01*
X185595238Y-67404761D02*
X185595238Y-66071428D01*
X185595238Y-66452380D02*
X185690476Y-66261904D01*
X185785714Y-66166666D01*
X185976190Y-66071428D01*
X186166666Y-66071428D01*
X187119047Y-67404761D02*
X186928571Y-67309523D01*
X186833333Y-67214285D01*
X186738095Y-67023809D01*
X186738095Y-66452380D01*
X186833333Y-66261904D01*
X186928571Y-66166666D01*
X187119047Y-66071428D01*
X187404761Y-66071428D01*
X187595238Y-66166666D01*
X187690476Y-66261904D01*
X187785714Y-66452380D01*
X187785714Y-67023809D01*
X187690476Y-67214285D01*
X187595238Y-67309523D01*
X187404761Y-67404761D01*
X187119047Y-67404761D01*
X188357142Y-66071428D02*
X189119047Y-66071428D01*
X188642857Y-65404761D02*
X188642857Y-67119047D01*
X188738095Y-67309523D01*
X188928571Y-67404761D01*
X189119047Y-67404761D01*
X190642857Y-67404761D02*
X190642857Y-66357142D01*
X190547619Y-66166666D01*
X190357142Y-66071428D01*
X189976190Y-66071428D01*
X189785714Y-66166666D01*
X190642857Y-67309523D02*
X190452380Y-67404761D01*
X189976190Y-67404761D01*
X189785714Y-67309523D01*
X189690476Y-67119047D01*
X189690476Y-66928571D01*
X189785714Y-66738095D01*
X189976190Y-66642857D01*
X190452380Y-66642857D01*
X190642857Y-66547619D01*
X191595238Y-67404761D02*
X191595238Y-66071428D01*
X191595238Y-66452380D02*
X191690476Y-66261904D01*
X191785714Y-66166666D01*
X191976190Y-66071428D01*
X192166666Y-66071428D01*
X192642857Y-66071428D02*
X193119047Y-67404761D01*
X193595238Y-66071428D02*
X193119047Y-67404761D01*
X192928571Y-67880952D01*
X192833333Y-67976190D01*
X192642857Y-68071428D01*
X184833333Y-70459523D02*
X184642857Y-70554761D01*
X184261904Y-70554761D01*
X184071428Y-70459523D01*
X183976190Y-70269047D01*
X183976190Y-69507142D01*
X184071428Y-69316666D01*
X184261904Y-69221428D01*
X184642857Y-69221428D01*
X184833333Y-69316666D01*
X184928571Y-69507142D01*
X184928571Y-69697619D01*
X183976190Y-69888095D01*
X185785714Y-69221428D02*
X185785714Y-70554761D01*
X185785714Y-69411904D02*
X185880952Y-69316666D01*
X186071428Y-69221428D01*
X186357142Y-69221428D01*
X186547619Y-69316666D01*
X186642857Y-69507142D01*
X186642857Y-70554761D01*
X188452380Y-70459523D02*
X188261904Y-70554761D01*
X187880952Y-70554761D01*
X187690476Y-70459523D01*
X187595238Y-70364285D01*
X187500000Y-70173809D01*
X187500000Y-69602380D01*
X187595238Y-69411904D01*
X187690476Y-69316666D01*
X187880952Y-69221428D01*
X188261904Y-69221428D01*
X188452380Y-69316666D01*
X189595238Y-70554761D02*
X189404761Y-70459523D01*
X189309523Y-70364285D01*
X189214285Y-70173809D01*
X189214285Y-69602380D01*
X189309523Y-69411904D01*
X189404761Y-69316666D01*
X189595238Y-69221428D01*
X189880952Y-69221428D01*
X190071428Y-69316666D01*
X190166666Y-69411904D01*
X190261904Y-69602380D01*
X190261904Y-70173809D01*
X190166666Y-70364285D01*
X190071428Y-70459523D01*
X189880952Y-70554761D01*
X189595238Y-70554761D01*
X191976190Y-70554761D02*
X191976190Y-68554761D01*
X191976190Y-70459523D02*
X191785714Y-70554761D01*
X191404761Y-70554761D01*
X191214285Y-70459523D01*
X191119047Y-70364285D01*
X191023809Y-70173809D01*
X191023809Y-69602380D01*
X191119047Y-69411904D01*
X191214285Y-69316666D01*
X191404761Y-69221428D01*
X191785714Y-69221428D01*
X191976190Y-69316666D01*
X193690476Y-70459523D02*
X193500000Y-70554761D01*
X193119047Y-70554761D01*
X192928571Y-70459523D01*
X192833333Y-70269047D01*
X192833333Y-69507142D01*
X192928571Y-69316666D01*
X193119047Y-69221428D01*
X193500000Y-69221428D01*
X193690476Y-69316666D01*
X193785714Y-69507142D01*
X193785714Y-69697619D01*
X192833333Y-69888095D01*
X194642857Y-70554761D02*
X194642857Y-69221428D01*
X194642857Y-69602380D02*
X194738095Y-69411904D01*
X194833333Y-69316666D01*
X195023809Y-69221428D01*
X195214285Y-69221428D01*
X131928571Y-70754761D02*
X132404761Y-72754761D01*
X132785714Y-71326190D01*
X133166666Y-72754761D01*
X133642857Y-70754761D01*
X135166666Y-72659523D02*
X134976190Y-72754761D01*
X134595238Y-72754761D01*
X134404761Y-72659523D01*
X134309523Y-72469047D01*
X134309523Y-71707142D01*
X134404761Y-71516666D01*
X134595238Y-71421428D01*
X134976190Y-71421428D01*
X135166666Y-71516666D01*
X135261904Y-71707142D01*
X135261904Y-71897619D01*
X134309523Y-72088095D01*
X136119047Y-72754761D02*
X136119047Y-70754761D01*
X136785714Y-72183333D01*
X137452380Y-70754761D01*
X137452380Y-72754761D01*
X138690476Y-72754761D02*
X138500000Y-72659523D01*
X138404761Y-72564285D01*
X138309523Y-72373809D01*
X138309523Y-71802380D01*
X138404761Y-71611904D01*
X138500000Y-71516666D01*
X138690476Y-71421428D01*
X138976190Y-71421428D01*
X139166666Y-71516666D01*
X139261904Y-71611904D01*
X139357142Y-71802380D01*
X139357142Y-72373809D01*
X139261904Y-72564285D01*
X139166666Y-72659523D01*
X138976190Y-72754761D01*
X138690476Y-72754761D01*
X140119047Y-72659523D02*
X140309523Y-72754761D01*
X140690476Y-72754761D01*
X140880952Y-72659523D01*
X140976190Y-72469047D01*
X140976190Y-72373809D01*
X140880952Y-72183333D01*
X140690476Y-72088095D01*
X140404761Y-72088095D01*
X140214285Y-71992857D01*
X140119047Y-71802380D01*
X140119047Y-71707142D01*
X140214285Y-71516666D01*
X140404761Y-71421428D01*
X140690476Y-71421428D01*
X140880952Y-71516666D01*
X129500000Y-75904761D02*
X129500000Y-73904761D01*
X129976190Y-73904761D01*
X130261904Y-74000000D01*
X130452380Y-74190476D01*
X130547619Y-74380952D01*
X130642857Y-74761904D01*
X130642857Y-75047619D01*
X130547619Y-75428571D01*
X130452380Y-75619047D01*
X130261904Y-75809523D01*
X129976190Y-75904761D01*
X129500000Y-75904761D01*
X132547619Y-75904761D02*
X131404761Y-75904761D01*
X131976190Y-75904761D02*
X131976190Y-73904761D01*
X131785714Y-74190476D01*
X131595238Y-74380952D01*
X131404761Y-74476190D01*
X134928571Y-74857142D02*
X135595238Y-74857142D01*
X135880952Y-75904761D02*
X134928571Y-75904761D01*
X134928571Y-73904761D01*
X135880952Y-73904761D01*
X136642857Y-75809523D02*
X136928571Y-75904761D01*
X137404761Y-75904761D01*
X137595238Y-75809523D01*
X137690476Y-75714285D01*
X137785714Y-75523809D01*
X137785714Y-75333333D01*
X137690476Y-75142857D01*
X137595238Y-75047619D01*
X137404761Y-74952380D01*
X137023809Y-74857142D01*
X136833333Y-74761904D01*
X136738095Y-74666666D01*
X136642857Y-74476190D01*
X136642857Y-74285714D01*
X136738095Y-74095238D01*
X136833333Y-74000000D01*
X137023809Y-73904761D01*
X137500000Y-73904761D01*
X137785714Y-74000000D01*
X138642857Y-75904761D02*
X138642857Y-73904761D01*
X139404761Y-73904761D01*
X139595238Y-74000000D01*
X139690476Y-74095238D01*
X139785714Y-74285714D01*
X139785714Y-74571428D01*
X139690476Y-74761904D01*
X139595238Y-74857142D01*
X139404761Y-74952380D01*
X138642857Y-74952380D01*
X140452380Y-73904761D02*
X141690476Y-73904761D01*
X141023809Y-74666666D01*
X141309523Y-74666666D01*
X141500000Y-74761904D01*
X141595238Y-74857142D01*
X141690476Y-75047619D01*
X141690476Y-75523809D01*
X141595238Y-75714285D01*
X141500000Y-75809523D01*
X141309523Y-75904761D01*
X140738095Y-75904761D01*
X140547619Y-75809523D01*
X140452380Y-75714285D01*
X142452380Y-74095238D02*
X142547619Y-74000000D01*
X142738095Y-73904761D01*
X143214285Y-73904761D01*
X143404761Y-74000000D01*
X143500000Y-74095238D01*
X143595238Y-74285714D01*
X143595238Y-74476190D01*
X143500000Y-74761904D01*
X142357142Y-75904761D01*
X143595238Y-75904761D01*
X132214285Y-77721428D02*
X132690476Y-79054761D01*
X133166666Y-77721428D01*
X134976190Y-79054761D02*
X133833333Y-79054761D01*
X134404761Y-79054761D02*
X134404761Y-77054761D01*
X134214285Y-77340476D01*
X134023809Y-77530952D01*
X133833333Y-77626190D01*
X135833333Y-78864285D02*
X135928571Y-78959523D01*
X135833333Y-79054761D01*
X135738095Y-78959523D01*
X135833333Y-78864285D01*
X135833333Y-79054761D01*
X137166666Y-77054761D02*
X137357142Y-77054761D01*
X137547619Y-77150000D01*
X137642857Y-77245238D01*
X137738095Y-77435714D01*
X137833333Y-77816666D01*
X137833333Y-78292857D01*
X137738095Y-78673809D01*
X137642857Y-78864285D01*
X137547619Y-78959523D01*
X137357142Y-79054761D01*
X137166666Y-79054761D01*
X136976190Y-78959523D01*
X136880952Y-78864285D01*
X136785714Y-78673809D01*
X136690476Y-78292857D01*
X136690476Y-77816666D01*
X136785714Y-77435714D01*
X136880952Y-77245238D01*
X136976190Y-77150000D01*
X137166666Y-77054761D01*
X138690476Y-78864285D02*
X138785714Y-78959523D01*
X138690476Y-79054761D01*
X138595238Y-78959523D01*
X138690476Y-78864285D01*
X138690476Y-79054761D01*
X140023809Y-77054761D02*
X140214285Y-77054761D01*
X140404761Y-77150000D01*
X140500000Y-77245238D01*
X140595238Y-77435714D01*
X140690476Y-77816666D01*
X140690476Y-78292857D01*
X140595238Y-78673809D01*
X140500000Y-78864285D01*
X140404761Y-78959523D01*
X140214285Y-79054761D01*
X140023809Y-79054761D01*
X139833333Y-78959523D01*
X139738095Y-78864285D01*
X139642857Y-78673809D01*
X139547619Y-78292857D01*
X139547619Y-77816666D01*
X139642857Y-77435714D01*
X139738095Y-77245238D01*
X139833333Y-77150000D01*
X140023809Y-77054761D01*
X121547619Y-61907023D02*
X122023809Y-61573690D01*
X121547619Y-61335595D02*
X122547619Y-61335595D01*
X122547619Y-61716547D01*
X122500000Y-61811785D01*
X122452380Y-61859404D01*
X122357142Y-61907023D01*
X122214285Y-61907023D01*
X122119047Y-61859404D01*
X122071428Y-61811785D01*
X122023809Y-61716547D01*
X122023809Y-61335595D01*
X121595238Y-62287976D02*
X121547619Y-62430833D01*
X121547619Y-62668928D01*
X121595238Y-62764166D01*
X121642857Y-62811785D01*
X121738095Y-62859404D01*
X121833333Y-62859404D01*
X121928571Y-62811785D01*
X121976190Y-62764166D01*
X122023809Y-62668928D01*
X122071428Y-62478452D01*
X122119047Y-62383214D01*
X122166666Y-62335595D01*
X122261904Y-62287976D01*
X122357142Y-62287976D01*
X122452380Y-62335595D01*
X122500000Y-62383214D01*
X122547619Y-62478452D01*
X122547619Y-62716547D01*
X122500000Y-62859404D01*
X122547619Y-63145119D02*
X122547619Y-63716547D01*
X121547619Y-63430833D02*
X122547619Y-63430833D01*
D11*
X116500000Y-59500000D02*
X150500000Y-59500000D01*
X116500000Y-89500000D02*
X116500000Y-59500000D01*
X150500000Y-89500000D02*
X116500000Y-89500000D01*
X150500000Y-59500000D02*
X150500000Y-89500000D01*
D10*
X166761904Y-88904761D02*
X167142857Y-88904761D01*
X167333333Y-89000000D01*
X167523809Y-89190476D01*
X167619047Y-89571428D01*
X167619047Y-90238095D01*
X167523809Y-90619047D01*
X167333333Y-90809523D01*
X167142857Y-90904761D01*
X166761904Y-90904761D01*
X166571428Y-90809523D01*
X166380952Y-90619047D01*
X166285714Y-90238095D01*
X166285714Y-89571428D01*
X166380952Y-89190476D01*
X166571428Y-89000000D01*
X166761904Y-88904761D01*
X169428571Y-90904761D02*
X168476190Y-90904761D01*
X168476190Y-88904761D01*
X170095238Y-89857142D02*
X170761904Y-89857142D01*
X171047619Y-90904761D02*
X170095238Y-90904761D01*
X170095238Y-88904761D01*
X171047619Y-88904761D01*
X171904761Y-90904761D02*
X171904761Y-88904761D01*
X172380952Y-88904761D01*
X172666666Y-89000000D01*
X172857142Y-89190476D01*
X172952380Y-89380952D01*
X173047619Y-89761904D01*
X173047619Y-90047619D01*
X172952380Y-90428571D01*
X172857142Y-90619047D01*
X172666666Y-90809523D01*
X172380952Y-90904761D01*
X171904761Y-90904761D01*
X173428571Y-91095238D02*
X174952380Y-91095238D01*
X176476190Y-90904761D02*
X175333333Y-90904761D01*
X175904761Y-90904761D02*
X175904761Y-88904761D01*
X175714285Y-89190476D01*
X175523809Y-89380952D01*
X175333333Y-89476190D01*
X177238095Y-89095238D02*
X177333333Y-89000000D01*
X177523809Y-88904761D01*
X178000000Y-88904761D01*
X178190476Y-89000000D01*
X178285714Y-89095238D01*
X178380952Y-89285714D01*
X178380952Y-89476190D01*
X178285714Y-89761904D01*
X177142857Y-90904761D01*
X178380952Y-90904761D01*
X179523809Y-89761904D02*
X179333333Y-89666666D01*
X179238095Y-89571428D01*
X179142857Y-89380952D01*
X179142857Y-89285714D01*
X179238095Y-89095238D01*
X179333333Y-89000000D01*
X179523809Y-88904761D01*
X179904761Y-88904761D01*
X180095238Y-89000000D01*
X180190476Y-89095238D01*
X180285714Y-89285714D01*
X180285714Y-89380952D01*
X180190476Y-89571428D01*
X180095238Y-89666666D01*
X179904761Y-89761904D01*
X179523809Y-89761904D01*
X179333333Y-89857142D01*
X179238095Y-89952380D01*
X179142857Y-90142857D01*
X179142857Y-90523809D01*
X179238095Y-90714285D01*
X179333333Y-90809523D01*
X179523809Y-90904761D01*
X179904761Y-90904761D01*
X180095238Y-90809523D01*
X180190476Y-90714285D01*
X180285714Y-90523809D01*
X180285714Y-90142857D01*
X180190476Y-89952380D01*
X180095238Y-89857142D01*
X179904761Y-89761904D01*
X180952380Y-90904761D02*
X182000000Y-89571428D01*
X180952380Y-89571428D02*
X182000000Y-90904761D01*
X182571428Y-88904761D02*
X183809523Y-88904761D01*
X183142857Y-89666666D01*
X183428571Y-89666666D01*
X183619047Y-89761904D01*
X183714285Y-89857142D01*
X183809523Y-90047619D01*
X183809523Y-90523809D01*
X183714285Y-90714285D01*
X183619047Y-90809523D01*
X183428571Y-90904761D01*
X182857142Y-90904761D01*
X182666666Y-90809523D01*
X182571428Y-90714285D01*
X184571428Y-89095238D02*
X184666666Y-89000000D01*
X184857142Y-88904761D01*
X185333333Y-88904761D01*
X185523809Y-89000000D01*
X185619047Y-89095238D01*
X185714285Y-89285714D01*
X185714285Y-89476190D01*
X185619047Y-89761904D01*
X184476190Y-90904761D01*
X185714285Y-90904761D01*
D11*
X155000000Y-96000000D02*
X155000000Y-82000000D01*
X155000000Y-82000000D02*
X195000000Y-82000000D01*
X155000000Y-96000000D02*
X195000000Y-96000000D01*
X195000000Y-82000000D02*
X195000000Y-96000000D01*
D10*
X119595238Y-72073690D02*
X117976190Y-72073690D01*
X117785714Y-72168928D01*
X117690476Y-72264166D01*
X117595238Y-72454642D01*
X117595238Y-72835595D01*
X117690476Y-73026071D01*
X117785714Y-73121309D01*
X117976190Y-73216547D01*
X119595238Y-73216547D01*
X117690476Y-74073690D02*
X117595238Y-74359404D01*
X117595238Y-74835595D01*
X117690476Y-75026071D01*
X117785714Y-75121309D01*
X117976190Y-75216547D01*
X118166666Y-75216547D01*
X118357142Y-75121309D01*
X118452380Y-75026071D01*
X118547619Y-74835595D01*
X118642857Y-74454642D01*
X118738095Y-74264166D01*
X118833333Y-74168928D01*
X119023809Y-74073690D01*
X119214285Y-74073690D01*
X119404761Y-74168928D01*
X119500000Y-74264166D01*
X119595238Y-74454642D01*
X119595238Y-74930833D01*
X119500000Y-75216547D01*
X118642857Y-76740357D02*
X118547619Y-77026071D01*
X118452380Y-77121309D01*
X118261904Y-77216547D01*
X117976190Y-77216547D01*
X117785714Y-77121309D01*
X117690476Y-77026071D01*
X117595238Y-76835595D01*
X117595238Y-76073690D01*
X119595238Y-76073690D01*
X119595238Y-76740357D01*
X119500000Y-76930833D01*
X119404761Y-77026071D01*
X119214285Y-77121309D01*
X119023809Y-77121309D01*
X118833333Y-77026071D01*
X118738095Y-76930833D01*
X118642857Y-76740357D01*
X118642857Y-76073690D01*
D11*
%TO.C,*%
X154670000Y-68330000D02*
X154670000Y-67000000D01*
X156000000Y-68330000D02*
X154670000Y-68330000D01*
X157270000Y-68330000D02*
X157270000Y-65670000D01*
X157270000Y-65670000D02*
X170030000Y-65670000D01*
X157270000Y-68330000D02*
X170030000Y-68330000D01*
X170030000Y-68330000D02*
X170030000Y-65670000D01*
X181830000Y-70910000D02*
X180500000Y-70910000D01*
X181830000Y-69580000D02*
X181830000Y-70910000D01*
X181830000Y-68310000D02*
X179170000Y-68310000D01*
X179170000Y-68310000D02*
X179170000Y-58090000D01*
X181830000Y-68310000D02*
X181830000Y-58090000D01*
X181830000Y-58090000D02*
X179170000Y-58090000D01*
%TO.C,right side*%
X123810000Y-84670000D02*
X123810000Y-87330000D01*
X146730000Y-84670000D02*
X123810000Y-84670000D01*
X146730000Y-87330000D02*
X123810000Y-87330000D01*
X146730000Y-84670000D02*
X146730000Y-87330000D01*
X148000000Y-84670000D02*
X149330000Y-84670000D01*
X149330000Y-84670000D02*
X149330000Y-86000000D01*
%TO.C,left side*%
X149330000Y-61670000D02*
X149330000Y-63000000D01*
X148000000Y-61670000D02*
X149330000Y-61670000D01*
X146730000Y-61670000D02*
X146730000Y-64330000D01*
X146730000Y-64330000D02*
X123810000Y-64330000D01*
X146730000Y-61670000D02*
X123810000Y-61670000D01*
X123810000Y-61670000D02*
X123810000Y-64330000D01*
%TO.C,OLED_128x32*%
X155670000Y-93950000D02*
X158330000Y-93950000D01*
X155670000Y-86270000D02*
X155670000Y-93950000D01*
X158330000Y-86270000D02*
X158330000Y-93950000D01*
X155670000Y-86270000D02*
X158330000Y-86270000D01*
X155670000Y-85000000D02*
X155670000Y-83670000D01*
X155670000Y-83670000D02*
X157000000Y-83670000D01*
%TD*%
%TO.C,HoleSW*%
D10*
X115523809Y-94452380D02*
X115523809Y-93452380D01*
X115523809Y-93928571D02*
X116095238Y-93928571D01*
X116095238Y-94452380D02*
X116095238Y-93452380D01*
X116714285Y-94452380D02*
X116619047Y-94404761D01*
X116571428Y-94357142D01*
X116523809Y-94261904D01*
X116523809Y-93976190D01*
X116571428Y-93880952D01*
X116619047Y-93833333D01*
X116714285Y-93785714D01*
X116857142Y-93785714D01*
X116952380Y-93833333D01*
X117000000Y-93880952D01*
X117047619Y-93976190D01*
X117047619Y-94261904D01*
X117000000Y-94357142D01*
X116952380Y-94404761D01*
X116857142Y-94452380D01*
X116714285Y-94452380D01*
X117619047Y-94452380D02*
X117523809Y-94404761D01*
X117476190Y-94309523D01*
X117476190Y-93452380D01*
X118380952Y-94404761D02*
X118285714Y-94452380D01*
X118095238Y-94452380D01*
X118000000Y-94404761D01*
X117952380Y-94309523D01*
X117952380Y-93928571D01*
X118000000Y-93833333D01*
X118095238Y-93785714D01*
X118285714Y-93785714D01*
X118380952Y-93833333D01*
X118428571Y-93928571D01*
X118428571Y-94023809D01*
X117952380Y-94119047D01*
X118809523Y-94404761D02*
X118952380Y-94452380D01*
X119190476Y-94452380D01*
X119285714Y-94404761D01*
X119333333Y-94357142D01*
X119380952Y-94261904D01*
X119380952Y-94166666D01*
X119333333Y-94071428D01*
X119285714Y-94023809D01*
X119190476Y-93976190D01*
X119000000Y-93928571D01*
X118904761Y-93880952D01*
X118857142Y-93833333D01*
X118809523Y-93738095D01*
X118809523Y-93642857D01*
X118857142Y-93547619D01*
X118904761Y-93500000D01*
X119000000Y-93452380D01*
X119238095Y-93452380D01*
X119380952Y-93500000D01*
X119714285Y-93452380D02*
X119952380Y-94452380D01*
X120142857Y-93738095D01*
X120333333Y-94452380D01*
X120571428Y-93452380D01*
%TO.C,HoleSE*%
X195142857Y-95952380D02*
X195142857Y-94952380D01*
X195142857Y-95428571D02*
X195714285Y-95428571D01*
X195714285Y-95952380D02*
X195714285Y-94952380D01*
X196333333Y-95952380D02*
X196238095Y-95904761D01*
X196190476Y-95857142D01*
X196142857Y-95761904D01*
X196142857Y-95476190D01*
X196190476Y-95380952D01*
X196238095Y-95333333D01*
X196333333Y-95285714D01*
X196476190Y-95285714D01*
X196571428Y-95333333D01*
X196619047Y-95380952D01*
X196666666Y-95476190D01*
X196666666Y-95761904D01*
X196619047Y-95857142D01*
X196571428Y-95904761D01*
X196476190Y-95952380D01*
X196333333Y-95952380D01*
X197238095Y-95952380D02*
X197142857Y-95904761D01*
X197095238Y-95809523D01*
X197095238Y-94952380D01*
X198000000Y-95904761D02*
X197904761Y-95952380D01*
X197714285Y-95952380D01*
X197619047Y-95904761D01*
X197571428Y-95809523D01*
X197571428Y-95428571D01*
X197619047Y-95333333D01*
X197714285Y-95285714D01*
X197904761Y-95285714D01*
X198000000Y-95333333D01*
X198047619Y-95428571D01*
X198047619Y-95523809D01*
X197571428Y-95619047D01*
X198428571Y-95904761D02*
X198571428Y-95952380D01*
X198809523Y-95952380D01*
X198904761Y-95904761D01*
X198952380Y-95857142D01*
X199000000Y-95761904D01*
X199000000Y-95666666D01*
X198952380Y-95571428D01*
X198904761Y-95523809D01*
X198809523Y-95476190D01*
X198619047Y-95428571D01*
X198523809Y-95380952D01*
X198476190Y-95333333D01*
X198428571Y-95238095D01*
X198428571Y-95142857D01*
X198476190Y-95047619D01*
X198523809Y-95000000D01*
X198619047Y-94952380D01*
X198857142Y-94952380D01*
X199000000Y-95000000D01*
X199428571Y-95428571D02*
X199761904Y-95428571D01*
X199904761Y-95952380D02*
X199428571Y-95952380D01*
X199428571Y-94952380D01*
X199904761Y-94952380D01*
%TO.C,HoleNE*%
X194595238Y-53952380D02*
X194595238Y-52952380D01*
X194595238Y-53428571D02*
X195166666Y-53428571D01*
X195166666Y-53952380D02*
X195166666Y-52952380D01*
X195785714Y-53952380D02*
X195690476Y-53904761D01*
X195642857Y-53857142D01*
X195595238Y-53761904D01*
X195595238Y-53476190D01*
X195642857Y-53380952D01*
X195690476Y-53333333D01*
X195785714Y-53285714D01*
X195928571Y-53285714D01*
X196023809Y-53333333D01*
X196071428Y-53380952D01*
X196119047Y-53476190D01*
X196119047Y-53761904D01*
X196071428Y-53857142D01*
X196023809Y-53904761D01*
X195928571Y-53952380D01*
X195785714Y-53952380D01*
X196690476Y-53952380D02*
X196595238Y-53904761D01*
X196547619Y-53809523D01*
X196547619Y-52952380D01*
X197452380Y-53904761D02*
X197357142Y-53952380D01*
X197166666Y-53952380D01*
X197071428Y-53904761D01*
X197023809Y-53809523D01*
X197023809Y-53428571D01*
X197071428Y-53333333D01*
X197166666Y-53285714D01*
X197357142Y-53285714D01*
X197452380Y-53333333D01*
X197500000Y-53428571D01*
X197500000Y-53523809D01*
X197023809Y-53619047D01*
X197928571Y-53952380D02*
X197928571Y-52952380D01*
X198500000Y-53952380D01*
X198500000Y-52952380D01*
X198976190Y-53428571D02*
X199309523Y-53428571D01*
X199452380Y-53952380D02*
X198976190Y-53952380D01*
X198976190Y-52952380D01*
X199452380Y-52952380D01*
%TO.C,HoleNW*%
X115476190Y-54952380D02*
X115476190Y-53952380D01*
X115476190Y-54428571D02*
X116047619Y-54428571D01*
X116047619Y-54952380D02*
X116047619Y-53952380D01*
X116666666Y-54952380D02*
X116571428Y-54904761D01*
X116523809Y-54857142D01*
X116476190Y-54761904D01*
X116476190Y-54476190D01*
X116523809Y-54380952D01*
X116571428Y-54333333D01*
X116666666Y-54285714D01*
X116809523Y-54285714D01*
X116904761Y-54333333D01*
X116952380Y-54380952D01*
X117000000Y-54476190D01*
X117000000Y-54761904D01*
X116952380Y-54857142D01*
X116904761Y-54904761D01*
X116809523Y-54952380D01*
X116666666Y-54952380D01*
X117571428Y-54952380D02*
X117476190Y-54904761D01*
X117428571Y-54809523D01*
X117428571Y-53952380D01*
X118333333Y-54904761D02*
X118238095Y-54952380D01*
X118047619Y-54952380D01*
X117952380Y-54904761D01*
X117904761Y-54809523D01*
X117904761Y-54428571D01*
X117952380Y-54333333D01*
X118047619Y-54285714D01*
X118238095Y-54285714D01*
X118333333Y-54333333D01*
X118380952Y-54428571D01*
X118380952Y-54523809D01*
X117904761Y-54619047D01*
X118809523Y-54952380D02*
X118809523Y-53952380D01*
X119380952Y-54952380D01*
X119380952Y-53952380D01*
X119761904Y-53952380D02*
X120000000Y-54952380D01*
X120190476Y-54238095D01*
X120380952Y-54952380D01*
X120619047Y-53952380D01*
%TO.C,*%
%TO.C,right side*%
X143095238Y-88952380D02*
X143095238Y-88285714D01*
X143095238Y-88476190D02*
X143142857Y-88380952D01*
X143190476Y-88333333D01*
X143285714Y-88285714D01*
X143380952Y-88285714D01*
X143714285Y-88952380D02*
X143714285Y-88285714D01*
X143714285Y-87952380D02*
X143666666Y-88000000D01*
X143714285Y-88047619D01*
X143761904Y-88000000D01*
X143714285Y-87952380D01*
X143714285Y-88047619D01*
X144619047Y-88285714D02*
X144619047Y-89095238D01*
X144571428Y-89190476D01*
X144523809Y-89238095D01*
X144428571Y-89285714D01*
X144285714Y-89285714D01*
X144190476Y-89238095D01*
X144619047Y-88904761D02*
X144523809Y-88952380D01*
X144333333Y-88952380D01*
X144238095Y-88904761D01*
X144190476Y-88857142D01*
X144142857Y-88761904D01*
X144142857Y-88476190D01*
X144190476Y-88380952D01*
X144238095Y-88333333D01*
X144333333Y-88285714D01*
X144523809Y-88285714D01*
X144619047Y-88333333D01*
X145095238Y-88952380D02*
X145095238Y-87952380D01*
X145523809Y-88952380D02*
X145523809Y-88428571D01*
X145476190Y-88333333D01*
X145380952Y-88285714D01*
X145238095Y-88285714D01*
X145142857Y-88333333D01*
X145095238Y-88380952D01*
X145857142Y-88285714D02*
X146238095Y-88285714D01*
X146000000Y-87952380D02*
X146000000Y-88809523D01*
X146047619Y-88904761D01*
X146142857Y-88952380D01*
X146238095Y-88952380D01*
X147285714Y-88904761D02*
X147380952Y-88952380D01*
X147571428Y-88952380D01*
X147666666Y-88904761D01*
X147714285Y-88809523D01*
X147714285Y-88761904D01*
X147666666Y-88666666D01*
X147571428Y-88619047D01*
X147428571Y-88619047D01*
X147333333Y-88571428D01*
X147285714Y-88476190D01*
X147285714Y-88428571D01*
X147333333Y-88333333D01*
X147428571Y-88285714D01*
X147571428Y-88285714D01*
X147666666Y-88333333D01*
X148142857Y-88952380D02*
X148142857Y-88285714D01*
X148142857Y-87952380D02*
X148095238Y-88000000D01*
X148142857Y-88047619D01*
X148190476Y-88000000D01*
X148142857Y-87952380D01*
X148142857Y-88047619D01*
X149047619Y-88952380D02*
X149047619Y-87952380D01*
X149047619Y-88904761D02*
X148952380Y-88952380D01*
X148761904Y-88952380D01*
X148666666Y-88904761D01*
X148619047Y-88857142D01*
X148571428Y-88761904D01*
X148571428Y-88476190D01*
X148619047Y-88380952D01*
X148666666Y-88333333D01*
X148761904Y-88285714D01*
X148952380Y-88285714D01*
X149047619Y-88333333D01*
X149904761Y-88904761D02*
X149809523Y-88952380D01*
X149619047Y-88952380D01*
X149523809Y-88904761D01*
X149476190Y-88809523D01*
X149476190Y-88428571D01*
X149523809Y-88333333D01*
X149619047Y-88285714D01*
X149809523Y-88285714D01*
X149904761Y-88333333D01*
X149952380Y-88428571D01*
X149952380Y-88523809D01*
X149476190Y-88619047D01*
%TO.C,left side*%
X144214285Y-60952380D02*
X144119047Y-60904761D01*
X144071428Y-60809523D01*
X144071428Y-59952380D01*
X144976190Y-60904761D02*
X144880952Y-60952380D01*
X144690476Y-60952380D01*
X144595238Y-60904761D01*
X144547619Y-60809523D01*
X144547619Y-60428571D01*
X144595238Y-60333333D01*
X144690476Y-60285714D01*
X144880952Y-60285714D01*
X144976190Y-60333333D01*
X145023809Y-60428571D01*
X145023809Y-60523809D01*
X144547619Y-60619047D01*
X145309523Y-60285714D02*
X145690476Y-60285714D01*
X145452380Y-60952380D02*
X145452380Y-60095238D01*
X145500000Y-60000000D01*
X145595238Y-59952380D01*
X145690476Y-59952380D01*
X145880952Y-60285714D02*
X146261904Y-60285714D01*
X146023809Y-59952380D02*
X146023809Y-60809523D01*
X146071428Y-60904761D01*
X146166666Y-60952380D01*
X146261904Y-60952380D01*
X147309523Y-60904761D02*
X147404761Y-60952380D01*
X147595238Y-60952380D01*
X147690476Y-60904761D01*
X147738095Y-60809523D01*
X147738095Y-60761904D01*
X147690476Y-60666666D01*
X147595238Y-60619047D01*
X147452380Y-60619047D01*
X147357142Y-60571428D01*
X147309523Y-60476190D01*
X147309523Y-60428571D01*
X147357142Y-60333333D01*
X147452380Y-60285714D01*
X147595238Y-60285714D01*
X147690476Y-60333333D01*
X148166666Y-60952380D02*
X148166666Y-60285714D01*
X148166666Y-59952380D02*
X148119047Y-60000000D01*
X148166666Y-60047619D01*
X148214285Y-60000000D01*
X148166666Y-59952380D01*
X148166666Y-60047619D01*
X149071428Y-60952380D02*
X149071428Y-59952380D01*
X149071428Y-60904761D02*
X148976190Y-60952380D01*
X148785714Y-60952380D01*
X148690476Y-60904761D01*
X148642857Y-60857142D01*
X148595238Y-60761904D01*
X148595238Y-60476190D01*
X148642857Y-60380952D01*
X148690476Y-60333333D01*
X148785714Y-60285714D01*
X148976190Y-60285714D01*
X149071428Y-60333333D01*
X149928571Y-60904761D02*
X149833333Y-60952380D01*
X149642857Y-60952380D01*
X149547619Y-60904761D01*
X149500000Y-60809523D01*
X149500000Y-60428571D01*
X149547619Y-60333333D01*
X149642857Y-60285714D01*
X149833333Y-60285714D01*
X149928571Y-60333333D01*
X149976190Y-60428571D01*
X149976190Y-60523809D01*
X149500000Y-60619047D01*
%TO.C,OLED_128x32*%
X159880952Y-84952380D02*
X160071428Y-84952380D01*
X160166666Y-85000000D01*
X160261904Y-85095238D01*
X160309523Y-85285714D01*
X160309523Y-85619047D01*
X160261904Y-85809523D01*
X160166666Y-85904761D01*
X160071428Y-85952380D01*
X159880952Y-85952380D01*
X159785714Y-85904761D01*
X159690476Y-85809523D01*
X159642857Y-85619047D01*
X159642857Y-85285714D01*
X159690476Y-85095238D01*
X159785714Y-85000000D01*
X159880952Y-84952380D01*
X161214285Y-85952380D02*
X160738095Y-85952380D01*
X160738095Y-84952380D01*
X161547619Y-85428571D02*
X161880952Y-85428571D01*
X162023809Y-85952380D02*
X161547619Y-85952380D01*
X161547619Y-84952380D01*
X162023809Y-84952380D01*
X162452380Y-85952380D02*
X162452380Y-84952380D01*
X162690476Y-84952380D01*
X162833333Y-85000000D01*
X162928571Y-85095238D01*
X162976190Y-85190476D01*
X163023809Y-85380952D01*
X163023809Y-85523809D01*
X162976190Y-85714285D01*
X162928571Y-85809523D01*
X162833333Y-85904761D01*
X162690476Y-85952380D01*
X162452380Y-85952380D01*
X163214285Y-86047619D02*
X163976190Y-86047619D01*
X164738095Y-85952380D02*
X164166666Y-85952380D01*
X164452380Y-85952380D02*
X164452380Y-84952380D01*
X164357142Y-85095238D01*
X164261904Y-85190476D01*
X164166666Y-85238095D01*
X165119047Y-85047619D02*
X165166666Y-85000000D01*
X165261904Y-84952380D01*
X165500000Y-84952380D01*
X165595238Y-85000000D01*
X165642857Y-85047619D01*
X165690476Y-85142857D01*
X165690476Y-85238095D01*
X165642857Y-85380952D01*
X165071428Y-85952380D01*
X165690476Y-85952380D01*
X166261904Y-85380952D02*
X166166666Y-85333333D01*
X166119047Y-85285714D01*
X166071428Y-85190476D01*
X166071428Y-85142857D01*
X166119047Y-85047619D01*
X166166666Y-85000000D01*
X166261904Y-84952380D01*
X166452380Y-84952380D01*
X166547619Y-85000000D01*
X166595238Y-85047619D01*
X166642857Y-85142857D01*
X166642857Y-85190476D01*
X166595238Y-85285714D01*
X166547619Y-85333333D01*
X166452380Y-85380952D01*
X166261904Y-85380952D01*
X166166666Y-85428571D01*
X166119047Y-85476190D01*
X166071428Y-85571428D01*
X166071428Y-85761904D01*
X166119047Y-85857142D01*
X166166666Y-85904761D01*
X166261904Y-85952380D01*
X166452380Y-85952380D01*
X166547619Y-85904761D01*
X166595238Y-85857142D01*
X166642857Y-85761904D01*
X166642857Y-85571428D01*
X166595238Y-85476190D01*
X166547619Y-85428571D01*
X166452380Y-85380952D01*
X166976190Y-85952380D02*
X167500000Y-85285714D01*
X166976190Y-85285714D02*
X167500000Y-85952380D01*
X167785714Y-84952380D02*
X168404761Y-84952380D01*
X168071428Y-85333333D01*
X168214285Y-85333333D01*
X168309523Y-85380952D01*
X168357142Y-85428571D01*
X168404761Y-85523809D01*
X168404761Y-85761904D01*
X168357142Y-85857142D01*
X168309523Y-85904761D01*
X168214285Y-85952380D01*
X167928571Y-85952380D01*
X167833333Y-85904761D01*
X167785714Y-85857142D01*
X168785714Y-85047619D02*
X168833333Y-85000000D01*
X168928571Y-84952380D01*
X169166666Y-84952380D01*
X169261904Y-85000000D01*
X169309523Y-85047619D01*
X169357142Y-85142857D01*
X169357142Y-85238095D01*
X169309523Y-85380952D01*
X168738095Y-85952380D01*
X169357142Y-85952380D01*
%TD*%
M02*
